<?xml version="1.0" encoding="UTF-8"?>
<svg id="uuid-786d0e4f-b391-4b59-8161-0e81680c1242" data-name="Layer 1" xmlns="http://www.w3.org/2000/svg" viewBox="0 0 100 100">
  <defs>
    <style>
      .uuid-f26a4fd6-d7ed-4a1a-9828-9350af5548d7 {
        fill: #364856;
        stroke-width: 0px;
      }
    </style>
  </defs>
  <path class="uuid-f26a4fd6-d7ed-4a1a-9828-9350af5548d7" d="m88.24,33.38c-.83-.09-1.14-.34-1.29-1.16-.36-1.93-.71-3.9-1.35-5.75-5.09-14.6-15.17-23.41-30.5-25.96-7.85-1.31-15.38.08-22.31,3.79-10.99,5.89-17.78,14.99-19.74,27.46-.17,1.09-.56,1.54-1.75,1.68C4.59,34.21-.16,39.54.13,46.29c.16,3.72.93,7.41,1.45,11.1.74,5.29,1.46,10.59,2.26,15.87.57,3.79.86,7.66,2.47,11.21,3.93,8.72,10.58,14.02,20.14,15.07,7.81.86,15.68.13,22.04.33,7.92,0,14.37-.01,20.81,0,9.91.02,17.66-3.99,22.93-12.45,2.39-3.82,3.11-8.17,3.69-12.58,1.18-8.95,2.59-17.87,3.82-26.81,1.06-7.72-3.78-13.85-11.5-14.66Zm-54.92,45.02c-.03,2.47-1.13,4.06-3,4.59-2.75.79-5.29-1.16-5.33-4.21-.06-4.68-.02-9.35-.02-14.03,0-3.38-.01-6.76,0-10.13.01-2.65,1.65-4.54,4.04-4.62,1.77-.06,4.22,1.26,4.25,4.23.05,4.16.01,8.31.01,12.47.01,0,.03,0,.04,0,0,3.9.04,7.8-.01,11.69Zm16.68,4.82c-2.3.05-4.11-1.77-4.13-4.33-.05-4.16-.01-8.31-.01-12.47h0c0-4,.11-8.01-.04-12-.09-2.45,1.9-4.33,4.06-4.42,2.26-.1,4.18,1.82,4.2,4.3.04,8.21.04,16.42,0,24.63-.01,2.37-1.86,4.24-4.06,4.3Zm24.82-4.39c-.05,3.55-3.31,5.44-6.29,3.71-1.41-.81-1.95-2.17-1.96-3.67-.05-8.25-.05-16.49,0-24.74.01-2.38,1.96-4.21,4.19-4.15,2.24.06,4.03,1.85,4.06,4.26.06,4.1.02,8.19.02,12.29s.05,8.2-.01,12.29Zm1.95-45.47c-8.98,0-17.96,0-26.94,0-8.93,0-17.86,0-26.78,0-1.91,0-2.02-.12-1.58-1.92,2.72-11.03,9.48-18.5,20.32-21.72,11.63-3.46,23.66.36,31.32,10.37,2.6,3.4,4.24,7.22,5.2,11.35.44,1.89.37,1.91-1.54,1.91Z"/>
</svg>