<?xml version="1.0" encoding="UTF-8"?>
<svg id="uuid-4213b2af-bd5f-4453-aa97-d61821661d6f" data-name="Layer 1" xmlns="http://www.w3.org/2000/svg" viewBox="0 0 100.01 99.95">
  <defs>
    <style>
      .uuid-5288607e-7f8e-48ee-a102-78801199faa8 {
        fill: #364856;
      }

      .uuid-5288607e-7f8e-48ee-a102-78801199faa8, .uuid-9fa5016e-3b61-4013-a2d6-f14ce1710cae {
        stroke-width: 0px;
      }

      .uuid-9fa5016e-3b61-4013-a2d6-f14ce1710cae {
        fill: #374856;
      }
    </style>
  </defs>
  <path class="uuid-5288607e-7f8e-48ee-a102-78801199faa8" d="m89.4,33.39c-2.24-.05-2.14-.07-2.51-2.19-1.12-6.41-3.58-12.3-7.76-17.3-6.3-7.54-14.22-12.32-24.11-13.63C49.56-.44,44.22,0,38.98,1.56c-6.16,1.83-11.4,5.22-15.88,9.8-5.51,5.63-8.93,12.34-10.01,20.16-.22,1.57-.87,1.89-2.32,1.9-6.72.06-11.41,5.2-10.69,11.8.56,5.12,1.37,10.21,2.05,15.31.77,5.77,1.51,11.55,2.29,17.33.41,2.99.86,6,2.23,8.73,4.32,8.64,11.29,13.24,21.01,13.37,7.4.1,14.79.02,22.19.02,7.29,0,14.58,0,21.88,0,3.36,0,6.6-.46,9.72-1.86,6.62-2.96,11.06-7.78,13.06-14.78,1.39-4.88,1.59-9.95,2.35-14.94,1.12-7.41,1.91-14.86,3.02-22.27,1.04-6.93-3.5-12.59-10.46-12.76Zm-72.14-1.93c1.62-9.07,6.26-16.34,13.86-21.4,11.64-7.75,23.92-8.07,35.96-1.15,8.69,4.98,13.79,12.89,15.68,22.8.26,1.36-.16,1.7-1.48,1.7-10.42-.04-20.84-.02-31.26-.02-10.37,0-20.74,0-31.1,0-1.92,0-2-.02-1.66-1.92Zm77.61,20.25c-1.13,9.09-2.47,18.15-3.59,27.24-.92,7.54-6.65,14.2-13.95,16.13-1.96.52-3.9.61-5.87.61-7.19.03-14.38.01-21.57.01,0-.03,0-.06,0-.09-8.07,0-16.15.11-24.22-.03-7.06-.12-14.86-6.72-16.27-13.63-1.21-5.92-1.73-11.94-2.54-17.92-.76-5.57-1.53-11.13-2.26-16.71-.17-1.29-.31-2.59-.31-3.89.02-2.93,1.92-5.15,4.82-5.67.92-.17,1.86-.22,2.8-.22,25.43-.01,50.85,0,76.28,0,1.57,0,3.09.12,4.53.9,2.04,1.11,3,2.77,3.05,5.05.06,2.78-.55,5.49-.89,8.22Z"/>
  <path class="uuid-9fa5016e-3b61-4013-a2d6-f14ce1710cae" d="m47.87,66.44c0-4.42,0-8.84,0-13.26,0-.52-.01-1.06.13-1.54.29-1,.98-1.6,2.05-1.58,1,.02,1.66.59,1.92,1.53.15.54.17,1.13.17,1.69,0,8.84,0,17.69,0,26.53,0,2.26-.7,3.36-2.12,3.38-1.45.02-2.16-1.07-2.16-3.33,0-4.47,0-8.95,0-13.42Z"/>
  <path class="uuid-5288607e-7f8e-48ee-a102-78801199faa8" d="m29.15,66.7c0,4.58,0,9.15,0,13.73,0,1.74-.79,2.75-2.06,2.77-1.29.02-2.11-.98-2.11-2.73-.01-9.26-.01-18.51,0-27.77,0-1.7.87-2.71,2.17-2.67,1.26.04,2,.96,2,2.63.02,4.68,0,9.36,0,14.04Z"/>
  <path class="uuid-5288607e-7f8e-48ee-a102-78801199faa8" d="m70.88,66.52c0-4.58-.01-9.15,0-13.73,0-1.79.72-2.73,2.04-2.76,1.28-.03,2.14,1,2.15,2.7.01,9.26.02,18.52,0,27.78,0,1.78-.97,2.86-2.3,2.66-1.47-.23-1.89-1.26-1.88-2.6.01-4.68,0-9.36,0-14.04Z"/>
</svg>