<?xml version="1.0" encoding="UTF-8"?>
<svg id="uuid-f525ad6f-500e-4252-b90c-14154ceeb0a1" data-name="Layer 1" xmlns="http://www.w3.org/2000/svg" viewBox="0 0 100.01 99.95">
  <defs>
    <style>
      .uuid-a42f6260-65e6-4104-a181-8dea18014949 {
        fill: #364856;
        stroke-width: 0px;
      }
    </style>
  </defs>
  <path class="uuid-a42f6260-65e6-4104-a181-8dea18014949" d="m95.24,24.07c-.04-4.76-3.53-8.59-8.2-9.45-1.6-.3-3.21-.59-4.81-.92-7.84-1.61-14.71-5.22-21.13-9.91-6.87-5.02-15.85-5.06-22.68,0-7.57,5.6-15.86,9.26-25.19,10.72-5.49.86-8.61,4.87-8.63,10.45-.02,4.97,0,9.95,0,14.92,0,4.72-.11,9.45.02,14.17.41,14.11,6.35,25.35,18.12,33.16,6.9,4.58,14.7,7.58,22.04,11.41,3.45,1.8,6.79,1.8,10.25.04,6.03-3.08,12.19-5.91,18.17-9.1,13.49-7.19,21.07-18.51,21.92-33.74.59-10.55.2-21.15.11-31.73Zm-6.48,34.7c-1.7,11.08-7.62,19.38-17.47,24.72-6.62,3.59-13.41,6.89-20.1,10.36-.9.46-1.6.45-2.5-.02-6.69-3.47-13.51-6.71-20.1-10.36-10.97-6.08-17.24-15.45-17.72-28.06-.4-10.78-.08-21.58-.17-32.37-.01-1.64,1.04-1.6,1.98-1.75,7.89-1.21,15.24-3.95,22.21-7.75,2.83-1.54,5.51-3.32,8.1-5.23,4.65-3.42,9.25-3.46,13.92-.05,9.17,6.71,19.24,11.27,30.52,13.01,1.36.21,1.78.79,1.75,2.19-.09,5.54-.04,11.07-.04,17.71-.19,5.13.57,11.4-.38,17.58Z"/>
  <path class="uuid-a42f6260-65e6-4104-a181-8dea18014949" d="m66.02,48.22c-.73-.98-1-1.91-.98-3.09.06-3.4.06-6.8,0-10.2-.1-6.99-5.2-13.3-11.71-14.57-7.46-1.46-14.42,2.11-17.33,8.84-1.5,3.48-1.14,7.15-1.17,10.79,0,1.45-.08,2.9.02,4.34.11,1.7-.31,3.06-1.38,4.48-2.52,3.36-3.63,7.25-3.63,11.47,0,12.93,12.17,22.72,24.59,19.72,14.25-3.44,20.31-19.97,11.59-31.78Zm-22.23-8.3c.05-2.09-.06-4.19.09-6.27.23-3.23,2.83-5.48,6.08-5.45,3.21.03,5.85,2.38,6.05,5.54.13,2.08.06,4.18.06,6.27,0,.37-.08.75-.14,1.21-3.68-.82-7.29-.94-10.88-.21-1.19.24-1.29-.15-1.26-1.09Zm6.12,33.06c-6.88-.03-12.45-5.58-12.4-12.37.05-6.76,5.72-12.38,12.48-12.34,6.77.04,12.39,5.67,12.39,12.42,0,6.8-5.6,12.31-12.47,12.29Z"/>
</svg>