<?xml version="1.0" encoding="UTF-8"?>
<svg id="uuid-d2ebac66-8217-4211-9279-e054f1264021" data-name="Layer 1" xmlns="http://www.w3.org/2000/svg" viewBox="0 0 100 100">
  <defs>
    <style>
      .uuid-919a4bc1-bb38-4f3f-87fe-2c098cdd742a {
        fill: #364856;
        stroke-width: 0px;
      }
    </style>
  </defs>
  <path class="uuid-919a4bc1-bb38-4f3f-87fe-2c098cdd742a" d="m95.11,23.64c-.03-4.67-3.67-8.33-8.35-9.08-9.22-1.47-17.52-4.94-25.02-10.57-7.13-5.36-16.34-5.26-23.46.13-7.37,5.58-15.59,8.97-24.68,10.41-5.7.9-8.97,4.75-8.99,10.49-.02,4.97,0,9.95,0,14.92,0,4.66-.11,9.32.02,13.98.4,14.11,6.31,25.38,18.08,33.16,7.32,4.84,15.53,8.14,23.38,12.02,2.81,1.39,5.76,1.01,8.54-.37,6.23-3.09,12.53-6.05,18.65-9.35,12.59-6.78,20.18-17.27,21.53-31.59,1.08-11.34.37-22.77.28-34.16Zm-40.64,56.04c-12.4,2.99-24.57-6.78-24.56-19.7,0-4.22,1.11-8.1,3.62-11.46,1.06-1.42,1.49-2.78,1.38-4.48-.09-1.44-.02-2.89-.02-4.34.03-3.63-.33-7.3,1.17-10.78,2.9-6.72,9.86-10.28,17.31-8.83,6.51,1.27,11.6,7.58,11.7,14.56.05,3.4.05,6.79,0,10.19-.02,1.18.26,2.1.98,3.08,8.71,11.8,2.66,28.32-11.58,31.75Z"/>
  <path class="uuid-919a4bc1-bb38-4f3f-87fe-2c098cdd742a" d="m49.96,72.65c-6.88-.03-12.43-5.57-12.38-12.36.05-6.76,5.72-12.36,12.46-12.32,6.77.04,12.38,5.66,12.38,12.41,0,6.79-5.59,12.3-12.46,12.28Z"/>
  <path class="uuid-919a4bc1-bb38-4f3f-87fe-2c098cdd742a" d="m55.98,40.93c-3.67-.82-7.28-.94-10.87-.21-1.19.24-1.28-.15-1.26-1.09.05-2.09-.06-4.18.09-6.26.23-3.23,2.83-5.48,6.08-5.44,3.21.03,5.84,2.38,6.04,5.53.13,2.08.06,4.17.06,6.26,0,.37-.08.74-.14,1.21Z"/>
</svg>