<?xml version="1.0" encoding="UTF-8"?>
<svg id="uuid-b06b7654-5a2c-4de8-b473-aea9ad1c8b9b" data-name="Layer 1" xmlns="http://www.w3.org/2000/svg" viewBox="0 0 100 100">
  <defs>
    <style>
      .uuid-ae5c8f0b-2aa8-4f76-ba7d-5e63214d65d7 {
        fill: #364856;
        stroke-width: 0px;
      }
    </style>
  </defs>
  <path class="uuid-ae5c8f0b-2aa8-4f76-ba7d-5e63214d65d7" d="m99.63,53.07c-.57-.63-1.87-.14-2.84-.21-1.52-.11-2.77-1.33-2.82-2.79-.06-1.49,1.24-2.85,2.83-2.93.62-.03,1.25-.07,1.87,0,.96.12,1.22-.23,1.22-1.19-.04-8.98-.03-17.96,0-26.94,0-.89-.25-1.11-1.12-1.11-22.7.02-45.39.03-68.09,0-.98,0-1.21.28-1.19,1.23.06,3.11,0,6.23.04,9.34.01.79-.17,1.11-1.02,1.06-1.24-.07-2.5-.07-3.74,0-.86.05-1.03-.29-1.02-1.07.04-3.06-.03-6.13.04-9.19.03-1.08-.25-1.39-1.36-1.38-6.96.05-13.92.06-20.88,0-1.17-.01-1.44.28-1.43,1.44.06,8.15.02,16.3.04,24.45,0,1.07-.46,2.4.22,3.15.57.63,1.87.14,2.84.21,1.52.11,2.77,1.33,2.82,2.79.06,1.49-1.24,2.85-2.83,2.93-.62.03-1.25.07-1.87,0-.97-.12-1.22.23-1.22,1.2.04,8.98.03,17.96,0,26.94,0,.89.25,1.11,1.12,1.11,7.12-.03,14.23-.04,21.35,0,.99,0,1.21-.29,1.19-1.23-.06-3.11,0-6.23-.04-9.34-.01-.79.18-1.11,1.03-1.06,1.24.07,2.5.07,3.74,0,.86-.05,1.03.29,1.01,1.07-.04,3.01.04,6.02-.05,9.03-.04,1.21.28,1.54,1.52,1.54,11.22-.05,22.44-.03,33.66-.03s22.54-.02,33.81.03c1.17,0,1.44-.28,1.43-1.44-.06-8.15-.02-16.3-.04-24.45,0-1.07.46-2.4-.22-3.15Zm-58.35-14.82c.02-4.79,3.94-8.72,8.71-8.73,4.83,0,8.75,3.97,8.73,8.87-.02,4.8-3.94,8.72-8.71,8.73-4.83,0-8.75-3.98-8.73-8.87Zm9.43,26.85c-.21.21-.44.41-.71.66-.36-.34-.66-.61-.95-.9-1.01-1.04-2.72-2.02-2.83-3.14-.11-1.15,1.74-2.1,2.75-3.12,7.76-7.78,15.55-15.53,23.28-23.34.93-.94,1.46-.95,2.26.04.68.84,1.48,1.6,2.3,2.31.65.56.52.9-.03,1.45-8.7,8.67-17.39,17.36-26.07,26.04Zm22.62,5.38c-4.79-.04-8.67-3.96-8.68-8.77,0-4.88,3.95-8.87,8.77-8.83,4.79.04,8.67,3.96,8.68,8.77,0,4.88-3.95,8.88-8.77,8.83Z"/>
  <path class="uuid-ae5c8f0b-2aa8-4f76-ba7d-5e63214d65d7" d="m29.5,41.28c0,1.61-.04,3.22.02,4.83.03.83-.27,1.08-1.08,1.04-1.49-.08-3.39.45-4.37-.28-.96-.71-.26-2.71-.3-4.14-.06-2.07.02-4.15-.03-6.23-.02-.83.13-1.22,1.08-1.16,1.49.1,3.44-.49,4.37.25.98.78.2,2.81.31,4.28.03.46,0,.93,0,1.4Z"/>
  <path class="uuid-ae5c8f0b-2aa8-4f76-ba7d-5e63214d65d7" d="m29.5,58.83c0,1.56-.04,3.12.02,4.67.03.84-.13,1.22-1.08,1.16-1.49-.1-3.44.49-4.37-.25-.98-.78-.25-2.81-.3-4.28-.06-2.02.04-4.05-.04-6.07-.04-.98.29-1.27,1.24-1.2,1.44.1,3.31-.44,4.21.28.96.77.21,2.72.31,4.15.04.52,0,1.04,0,1.56Z"/>
  <path class="uuid-ae5c8f0b-2aa8-4f76-ba7d-5e63214d65d7" d="m47.13,38.29c0-1.58,1.27-2.89,2.81-2.93,1.58-.04,2.93,1.34,2.92,2.98,0,1.58-1.27,2.89-2.81,2.93-1.58.04-2.93-1.34-2.92-2.98Z"/>
  <path class="uuid-ae5c8f0b-2aa8-4f76-ba7d-5e63214d65d7" d="m70.5,61.68c0-1.63,1.37-3.01,2.95-2.95,1.55.06,2.79,1.37,2.79,2.95,0,1.64-1.37,3.01-2.95,2.95-1.55-.06-2.79-1.37-2.79-2.95Z"/>
</svg>