<?xml version="1.0" encoding="UTF-8"?>
<svg id="uuid-37c32b93-a895-4999-8fd6-887def3bf49a" data-name="Layer 1" xmlns="http://www.w3.org/2000/svg" viewBox="0 0 100.01 99.95">
  <defs>
    <style>
      .uuid-26f08961-895d-481d-8749-ba6699b80d76 {
        fill: #364856;
        stroke-width: 0px;
      }
    </style>
  </defs>
  <path class="uuid-26f08961-895d-481d-8749-ba6699b80d76" d="m99.64,53.05c-.57-.64-1.87-.13-2.84-.21-.16-.01-.31,0-.47-.04-1.68-.3-2.71-2.19-2.11-3.79.75-2.02,2.44-2.02,4.13-1.88,1.21.1,1.55-.26,1.54-1.51-.06-8.76-.06-17.53,0-26.3,0-1.16-.27-1.44-1.43-1.43-32.31.04-64.61.04-96.92,0-1.16,0-1.45.26-1.44,1.43.06,8.14.02,16.29.04,24.43,0,1.07-.45,2.4.22,3.15.57.64,1.87.13,2.84.21.16.01.31,0,.47.04,1.68.3,2.71,2.18,2.11,3.79-.75,2.02-2.44,2.02-4.13,1.88-1.21-.1-1.55.27-1.54,1.51.06,8.71.06,17.43,0,26.14,0,1.29.3,1.6,1.6,1.59,16.1-.05,32.2-.03,48.31-.03s32.31-.01,48.46.03c1.16,0,1.44-.27,1.44-1.43-.06-8.14-.02-16.29-.04-24.43,0-1.07.45-2.4-.22-3.15Zm-5.66-12.6c0,.82-.1,1.33-.99,1.78-3.13,1.59-4.78,4.25-4.77,7.76.01,3.51,1.67,6.14,4.79,7.75.78.4.98.83.97,1.63-.03,5.19-.05,10.37,0,15.56.01,1.03-.28,1.27-1.29,1.27-20.62-.03-41.24-.03-61.86,0-1.1,0-1.53-.31-1.35-1.39.02-.1,0-.21,0-.31-.09-1.33.57-3.41-.27-3.81-1.35-.65-3.23-.22-4.88-.26-.64-.02-.6.41-.6.83,0,1.24-.04,2.49.01,3.73.04.81-.12,1.2-1.08,1.2-5.25-.04-10.49-.04-15.74,0-.79,0-.93-.29-.93-.99.02-5.39.02-10.79,0-16.18,0-.6.18-.87.73-1.15,3.25-1.63,5.04-4.28,5.03-7.93,0-3.65-1.8-6.3-5.06-7.91-.58-.29-.7-.6-.69-1.17.02-5.39.02-10.79,0-16.18,0-.76.23-.96.97-.95,5.25.03,10.49.03,15.74,0,.83,0,1.15.27,1.03,1.07-.01.1,0,.21,0,.31.11,1.43-.64,3.39.31,4.14.9.71,2.78.13,4.22.25,1.11.09,1.3-.38,1.23-1.33-.07-1.03.06-2.08-.04-3.11-.11-1.14.36-1.35,1.4-1.35,10.28.04,20.57.02,30.85.02s20.36.04,30.54-.04c1.48-.01,1.74.44,1.72,1.79-.08,4.98-.04,9.96-.02,14.94Z"/>
  <path class="uuid-26f08961-895d-481d-8749-ba6699b80d76" d="m49.78,65.91c-.36-.5-.63-.95-.98-1.33-.91-.99-2.57-1.94-2.59-2.92-.01-.96,1.62-1.96,2.57-2.91,7.85-7.85,15.72-15.69,23.55-23.56.77-.77,1.24-1.03,2.04-.05.91,1.12,2.76,2.09,2.78,3.15.01,1.03-1.75,2.11-2.77,3.13-7.78,7.78-15.56,15.55-23.35,23.32-.32.32-.66.62-1.25,1.16Z"/>
  <path class="uuid-26f08961-895d-481d-8749-ba6699b80d76" d="m29.5,41.37c0,1.56-.03,3.11.01,4.67.02.77-.16,1.14-1.03,1.09-1.24-.07-2.49-.07-3.74,0-.89.05-1.02-.36-1.01-1.11.03-3.21.04-6.43,0-9.65-.01-.81.2-1.09,1.03-1.04,1.24.07,2.5.07,3.74,0,.86-.05,1.04.28,1.01,1.06-.05,1.66-.02,3.32-.02,4.98Z"/>
  <path class="uuid-26f08961-895d-481d-8749-ba6699b80d76" d="m29.5,58.79c0,1.56-.07,3.12.03,4.67.06,1.02-.31,1.25-1.23,1.16-1.48-.15-3.47.63-4.32-.31-.73-.81-.21-2.76-.22-4.2-.01-2.07.03-4.15-.02-6.22-.02-.82.25-1.1,1.06-1.05,1.49.08,3.38-.45,4.38.27.98.71.21,2.71.31,4.13.04.52,0,1.04,0,1.56Z"/>
  <path class="uuid-26f08961-895d-481d-8749-ba6699b80d76" d="m50.01,29.51c-4.83,0-8.75,3.97-8.73,8.86.02,4.79,3.94,8.72,8.72,8.72,4.83,0,8.75-3.97,8.73-8.86-.02-4.79-3.94-8.71-8.71-8.72Zm-.09,11.74c-1.55-.06-2.79-1.37-2.79-2.95,0-1.63,1.38-3,2.95-2.95,1.55.06,2.79,1.37,2.79,2.95,0,1.63-1.38,3.01-2.95,2.95Z"/>
  <path class="uuid-26f08961-895d-481d-8749-ba6699b80d76" d="m73.39,52.85c-4.83-.01-8.76,3.97-8.74,8.86.02,4.79,3.94,8.72,8.71,8.73,4.83.01,8.76-3.97,8.73-8.86-.02-4.8-3.93-8.72-8.71-8.73Zm-.02,11.74c-1.53,0-2.83-1.32-2.86-2.88-.03-1.66,1.27-3.02,2.87-3.02,1.53,0,2.83,1.31,2.86,2.88.03,1.65-1.28,3.02-2.88,3.02Z"/>
</svg>