<?xml version="1.0" encoding="UTF-8"?>
<svg id="uuid-066210c9-8c0e-4b8f-8789-ce43b682dccd" data-name="Layer 1" xmlns="http://www.w3.org/2000/svg" viewBox="0 0 100 100">
  <defs>
    <style>
      .uuid-d9bbf498-1e60-4113-968a-f208d65a3192 {
        fill: #364856;
        stroke-width: 0px;
      }
    </style>
  </defs>
  <path class="uuid-d9bbf498-1e60-4113-968a-f208d65a3192" d="m49.87,62.45c-12.54,0-25.09,0-37.63,0-4.93,0-9.72-3.43-11.45-8.19-1.77-4.86-.38-10.11,3.41-13.5,2.5-2.23,5.37-3.24,8.67-3.23,24.88,0,49.76,0,74.64,0,6.08,0,10.95,4.18,12.27,10.54,1.09,5.25-2.17,11.23-7.42,13.41-1.47.61-3.04.98-4.7.98-12.6-.03-25.19-.01-37.79-.01Z"/>
  <path class="uuid-d9bbf498-1e60-4113-968a-f208d65a3192" d="m37.53,0c8.33,0,16.66,0,24.98,0,6.25,0,11.93,5,12.44,11.96.42,5.75-3.97,11.5-9.98,12.73-1.13.23-2.25.35-3.4.35-16.13,0-32.27,0-48.4,0-7.96,0-13.51-5.84-13.12-13.79C.29,6.64,4.54,1.69,9.03.55,10.73.12,12.4,0,14.11,0c7.81,0,15.61,0,23.42,0Z"/>
  <path class="uuid-d9bbf498-1e60-4113-968a-f208d65a3192" d="m24.97,99.97c-3.95,0-7.91-.1-11.86.02-7.63.24-13.39-6.18-13.08-13.21.23-5.25,4.4-10.28,9.83-11.46,1.02-.22,2.04-.38,3.09-.38,8.07.01,16.13-.04,24.2.02,7.32.05,12.88,5.65,12.88,12.85,0,5.21-4.13,10.36-9.19,11.66-1.49.38-2.95.52-4.46.51-3.8-.02-7.6,0-11.4,0Z"/>
</svg>