<?xml version="1.0" encoding="UTF-8"?>
<svg id="uuid-676348b3-0662-47bc-99c9-d7184efb7127" data-name="Layer 1" xmlns="http://www.w3.org/2000/svg" viewBox="0 0 100 100">
  <defs>
    <style>
      .uuid-4271c4a3-c8a6-42f8-b3fa-939703c723e9 {
        fill: #364856;
        stroke-width: 0px;
      }
    </style>
  </defs>
  <path class="uuid-4271c4a3-c8a6-42f8-b3fa-939703c723e9" d="m99.87,48.41c-1.19-6.44-6.15-10.87-12.16-10.87-12.55,0-25.1,0-37.66,0-12.4,0-24.79,0-37.19,0-3.3,0-6.18.98-8.68,3.22-3.86,3.46-5.24,8.79-3.38,13.63,1.84,4.79,6.52,8.07,11.53,8.06,25.05,0,50.1,0,75.16.02,1.65,0,3.22-.35,4.71-.91,5.13-1.94,8.62-8.01,7.67-13.15Zm-11.12,9.74c-.77.09-1.55.17-2.33.17-24.26,0-48.52,0-72.78,0-4.77,0-7.61-1.82-9.01-5.73-1.68-4.7,1.62-10.13,6.56-10.74.93-.12,1.87-.18,2.8-.18,12.03-.01,24.05,0,36.08,0,12.18,0,24.37,0,36.55,0,4.6,0,7.57,2.03,8.84,5.97,1.53,4.71-1.79,9.92-6.7,10.52Z"/>
  <path class="uuid-4271c4a3-c8a6-42f8-b3fa-939703c723e9" d="m74.94,11.91C74.29,4.91,69.14-.11,62.58-.12c-8.33,0-16.67,0-25,0-7.86,0-15.73,0-23.59,0-1.67,0-3.28.12-4.93.54C4.26,1.63.06,6.75.01,11.68c-.08,7.69,5.39,13.23,13.06,13.23,16.2,0,32.4,0,48.59,0,1.15,0,2.28-.13,3.4-.36,5.91-1.21,10.4-6.95,9.87-12.65Zm-4.52,3.05c-1.17,3.22-4.02,5.52-7.76,5.78-.83.06-1.67.03-2.5.03-7.6,0-15.21,0-22.81,0-8.02,0-16.04,0-24.06,0-3.49,0-6.27-1.27-8.06-4.39-2.92-5.11.56-11.73,6.42-12.21.67-.06,1.35-.09,2.03-.09,15.83,0,31.66,0,47.49,0,2.26,0,4.44.16,6.35,1.65,2.45,1.91,4.06,6,2.89,9.23Z"/>
  <path class="uuid-4271c4a3-c8a6-42f8-b3fa-939703c723e9" d="m37.14,74.96c-8.07-.06-16.14,0-24.21-.02-1.1,0-2.18.17-3.24.41C4.34,76.57.21,81.61-.02,86.77c-.31,7.05,5.46,13.45,13.08,13.22,3.95-.12,7.91-.02,11.87-.02,3.8,0,7.6-.01,11.4,0,1.51,0,2.98-.13,4.47-.51,5.13-1.32,9.27-6.53,9.21-11.8-.08-7.13-5.62-12.65-12.88-12.7Zm8.54,13.87c-.35,3.31-3.59,6.67-6.93,6.78-4.68.16-9.36.04-14.05.04,0,0,0,.02,0,.03-4.37,0-8.75.11-13.11-.03-3.63-.12-6.87-3.3-7.24-6.78-.47-4.36,1.74-8.07,5.47-9.22,1.1-.34,2.21-.56,3.37-.56,7.91,0,15.82-.03,23.74.01,5.68.03,9.34,4.15,8.75,9.73Z"/>
</svg>