<?xml version="1.0" encoding="UTF-8"?>
<svg id="uuid-4fa440d6-8c90-4d45-a65e-679aeec375d2" data-name="Layer 1" xmlns="http://www.w3.org/2000/svg" viewBox="0 0 100 100">
  <defs>
    <style>
      .uuid-7e5c252c-b506-4965-a81e-59cce0fd416b {
        fill: #364856;
        stroke-width: 0px;
      }
    </style>
  </defs>
  <path class="uuid-7e5c252c-b506-4965-a81e-59cce0fd416b" d="m13.86,88.77c25.04,0,50.08,0,75.13,0q1.23,0,1.23-1.24c0-25.5,0-51,0-76.49.35.15.16.46.16.68.01,6.73.01,13.47.01,20.2,0,18.78,0,37.56.02,56.34,0,.58-.11.7-.7.7-25.06-.02-50.11-.02-75.17-.03-.22,0-.53.19-.68-.16Z"/>
  <g>
    <path class="uuid-7e5c252c-b506-4965-a81e-59cce0fd416b" d="m49.97,75.63c-.44,1.94-.86,3.97-1.37,5.97-.19.74-.79,1.08-1.57.94-.8-.14-1.21-.71-1.06-1.46.39-2.03.85-4.05,1.36-6.05.19-.74.78-1.09,1.56-.93.78.16,1.13.67,1.08,1.53Z"/>
    <path class="uuid-7e5c252c-b506-4965-a81e-59cce0fd416b" d="m68.73,50.71c0,.58-.28.97-.77,1.24-1.62.91-3.24,1.84-4.86,2.75-.8.45-1.5.4-1.96-.49-.42-.81-.09-1.42.62-1.83,1.65-.97,3.3-1.95,5-2.84.97-.51,1.95.13,1.98,1.17Z"/>
    <path class="uuid-7e5c252c-b506-4965-a81e-59cce0fd416b" d="m55.93,61.02s-.08.35-.23.6c-.92,1.49-1.84,2.98-2.82,4.43-.42.63-1,1.09-1.82.56-.76-.5-1.02-1.12-.49-1.96.97-1.52,1.92-3.06,2.89-4.58.37-.57.91-.88,1.59-.6.56.22.97.61.87,1.56Z"/>
    <path class="uuid-7e5c252c-b506-4965-a81e-59cce0fd416b" d="m41.67,89.27c.71,0,1.12.3,1.33.82.21.51.18,1.05-.27,1.43-1.43,1.2-2.85,2.41-4.32,3.56-.55.43-1.2.36-1.69-.17-.45-.49-.75-1.12-.16-1.65,1.51-1.34,3.07-2.61,4.63-3.88.14-.12.4-.09.48-.11Z"/>
    <path class="uuid-7e5c252c-b506-4965-a81e-59cce0fd416b" d="m22.98,99.96c-.85.02-1.39-.29-1.53-1.09-.15-.87.27-1.48,1.07-1.62,1.58-.28,3.18-.47,4.78-.62.78-.07,1.28.45,1.41,1.19.14.77-.26,1.36-1.03,1.49-1.58.27-3.18.45-4.7.66Z"/>
    <path class="uuid-7e5c252c-b506-4965-a81e-59cce0fd416b" d="m96.81,10.8c-2.83-8.64-12.53-13.06-21.1-9.64-7.63,3.05-11.51,10.81-9.23,18.6.79,2.69,2.1,5.18,3.42,7.64,3.18,5.94,6.39,11.86,9.59,17.78-.59.47-1.3.34-1.94.51-.71.19-1.21.64-1.16,1.44.05.7.47,1.31,1.15,1.24,1.54-.16,3.09-.41,4.58-.81.99-.27,1.11-1.42,1.57-2.21.4-.67.76-1.36,1.13-2.04,3.89-7.2,8.13-14.21,11.39-21.74,1.52-3.52,1.79-7.13.59-10.78Zm-15.1,15.47c-5.59.01-10.19-4.58-10.2-10.2,0-5.7,4.43-10.17,10.13-10.19,5.68-.02,10.2,4.47,10.2,10.13,0,5.63-4.56,10.25-10.14,10.26Z"/>
    <path class="uuid-7e5c252c-b506-4965-a81e-59cce0fd416b" d="m33.76,64.43c-2.07-8.99-11.47-14.23-20.45-11.37C4.35,55.93.07,65.21,3.77,73.94c3.71,8.76,8.94,16.73,13.24,25.18.64,1.27,1.9,1.14,2.62-.22,4-7.56,8.43-14.89,12.1-22.62,1.3-2.73,2.5-5.49,2.36-8.43-.01-1.27-.08-2.34-.33-3.43Zm-15.43,14.01c-5.72.01-10.22-4.42-10.24-10.07-.02-5.67,4.48-10.24,10.09-10.26,5.66-.02,10.23,4.48,10.24,10.11.02,5.71-4.43,10.21-10.09,10.23Z"/>
    <path class="uuid-7e5c252c-b506-4965-a81e-59cce0fd416b" d="m81.67,23.49c-4.16,0-7.48-3.37-7.43-7.54.04-4.07,3.39-7.39,7.45-7.39,4.12,0,7.53,3.45,7.47,7.56-.06,4.09-3.4,7.37-7.48,7.37Z"/>
    <path class="uuid-7e5c252c-b506-4965-a81e-59cce0fd416b" d="m25.71,68.31c0,4.11-3.31,7.43-7.42,7.44-4.15.02-7.58-3.42-7.51-7.54.07-4.09,3.44-7.4,7.53-7.37,4.11.03,7.41,3.35,7.4,7.47Z"/>
  </g>
</svg>