<?xml version="1.0" encoding="UTF-8"?>
<svg id="uuid-827a7e02-7a66-4f7e-a849-99296ecb10e0" data-name="Layer 1" xmlns="http://www.w3.org/2000/svg" viewBox="0 0 100 100">
  <defs>
    <style>
      .uuid-c795da37-438a-46e2-8832-668af0c89def {
        fill: #364856;
        stroke-width: 0px;
      }
    </style>
  </defs>
  <path class="uuid-c795da37-438a-46e2-8832-668af0c89def" d="m37.07,77.33c-.46.03-.79-.15-.85-.63-.07-.51.22-.81.71-.88.78-.12,1.57-.21,2.36-.31.51-.06.84.19.9.68.06.47-.21.74-.68.8-.81.11-1.63.22-2.44.33Z"/>
  <g>
    <path class="uuid-c795da37-438a-46e2-8832-668af0c89def" d="m49.98,75.69c-.44,1.89-.88,3.96-1.42,6.01-.2.76-.89.98-1.63.8-.71-.18-1.08-.73-.94-1.4.42-2.07.9-4.14,1.42-6.19.2-.79.88-.99,1.62-.8.69.18,1.01.68.95,1.58Z"/>
    <path class="uuid-c795da37-438a-46e2-8832-668af0c89def" d="m62.47,55c-.8-.07-1.16-.38-1.39-.91-.25-.56-.12-1.14.31-1.41,1.85-1.14,3.73-2.23,5.64-3.26.57-.31,1.11.02,1.47.55.32.47.45,1.09.03,1.44-1.86,1.59-4.05,2.62-6.06,3.59Z"/>
    <path class="uuid-c795da37-438a-46e2-8832-668af0c89def" d="m55.96,60.94c-.04.1-.09.41-.25.66-.92,1.49-1.85,2.97-2.82,4.43-.47.7-1.11,1.12-1.95.5-.76-.56-.82-1.22-.31-2.01.96-1.47,1.87-2.97,2.82-4.44.37-.57.9-.89,1.59-.63.56.21.97.6.91,1.48Z"/>
    <path class="uuid-c795da37-438a-46e2-8832-668af0c89def" d="m43.11,90.63c.05.54-.3.86-.66,1.16-1.23,1.03-2.47,2.06-3.71,3.07-.69.56-1.42.68-2.07-.04-.66-.74-.43-1.42.28-2,1.32-1.09,2.63-2.18,3.96-3.27.5-.41,1.07-.41,1.59-.1.42.24.66.65.62,1.18Z"/>
    <path class="uuid-c795da37-438a-46e2-8832-668af0c89def" d="m96.81,10.83c-2.83-8.64-12.53-13.06-21.09-9.65-7.63,3.04-11.51,10.8-9.23,18.6.79,2.69,2.1,5.18,3.42,7.64,3.17,5.94,6.39,11.85,9.59,17.78-.59.47-1.3.34-1.94.5-.71.18-1.21.64-1.16,1.44.05.7.47,1.32,1.15,1.25,1.54-.16,3.08-.41,4.58-.81,1-.27,1.11-1.42,1.58-2.2.4-.67.76-1.36,1.13-2.04,3.89-7.2,8.13-14.21,11.39-21.73,1.52-3.51,1.79-7.12.6-10.77Zm-3.25,10.07c-3.15,7.06-7.1,13.7-10.78,20.48-.34.64-.71,1.26-1.13,2.01-4.09-7.67-8.66-14.97-12.02-22.89-2.93-6.92.38-14.34,7.35-16.89,7.1-2.6,15.08,1.14,17.27,8.18.96,3.1.63,6.15-.69,9.11Z"/>
    <path class="uuid-c795da37-438a-46e2-8832-668af0c89def" d="m33.77,64.35c-2.02-8.86-11.4-14.1-20.35-11.32C4.52,55.8.09,65.15,3.7,73.71c3.71,8.81,8.97,16.82,13.29,25.32.69,1.35,1.93,1.23,2.69-.21,3.64-6.87,7.64-13.55,11.07-20.52,1.67-3.39,3.52-6.74,3.37-10.32-.03-1.47-.1-2.54-.35-3.62Zm-3.59,8.73c-.78,1.75-1.56,3.5-2.46,5.19-3.08,5.76-6.21,11.48-9.42,17.41-4.11-7.69-8.56-14.89-11.93-22.64-3.01-6.91.01-14.38,6.77-17.02,7.24-2.83,15.08.58,17.59,7.68,1.13,3.19.81,6.34-.55,9.39Z"/>
    <path class="uuid-c795da37-438a-46e2-8832-668af0c89def" d="m81.66,5.9c-5.69.02-10.15,4.49-10.14,10.18,0,5.62,4.6,10.21,10.19,10.2,5.58-.01,10.15-4.63,10.14-10.25,0-5.66-4.52-10.15-10.19-10.13Zm-.06,17.6c-4.09-.03-7.37-3.35-7.37-7.45,0-4.14,3.4-7.52,7.52-7.47,4.07.05,7.39,3.4,7.39,7.47,0,4.13-3.39,7.49-7.55,7.45Z"/>
    <path class="uuid-c795da37-438a-46e2-8832-668af0c89def" d="m18.26,58.1c-5.62,0-10.15,4.56-10.14,10.2,0,5.67,4.49,10.13,10.19,10.12,5.68,0,10.15-4.48,10.15-10.17,0-5.64-4.54-10.16-10.19-10.16Zm.08,17.64c-4.15.03-7.58-3.39-7.53-7.51.04-4.08,3.42-7.41,7.51-7.39,4.1.01,7.42,3.34,7.42,7.44,0,4.11-3.29,7.43-7.4,7.46Z"/>
  </g>
</svg>