<?xml version="1.0" encoding="UTF-8"?>
<svg id="uuid-2079e044-bba7-4a19-9aae-5ffc2d1a2a6a" data-name="Layer 1" xmlns="http://www.w3.org/2000/svg" viewBox="0 0 100 100">
  <defs>
    <style>
      .uuid-d19f1098-9ed7-4384-a85f-cdf91250c6a5 {
        fill: #364856;
        stroke-width: 0px;
      }
    </style>
  </defs>
  <path class="uuid-d19f1098-9ed7-4384-a85f-cdf91250c6a5" d="m48.91-.03C21.44.45-.06,22.95-.03,49.52c-.09,28.16,21.79,49.94,48.62,50.51,29.88.63,51.45-23.04,51.44-49.46C100.02,22,77.85-.53,48.91-.03Zm22.47,55.88c-4.23,6.71-9.95,12.04-16.18,16.8-3.02,2.31-6.77,2.47-9.84.29-7.53-5.36-14.11-11.7-18.34-20.13-1.31-2.6-1.96-5.37-1.97-8.28-.17-6.74,4.68-14.86,14.13-15.39,3.73-.21,7.06,1.18,9.8,3.76.77.73,1.24.77,2.05.02,7.61-7.04,19.63-3.85,23.09,6.56,1.97,5.92.45,11.3-2.74,16.36Z"/>
  <path class="uuid-d19f1098-9ed7-4384-a85f-cdf91250c6a5" d="m66.66,45.44c-.12,1.89-1.13,4.04-2.45,6.06-3.56,5.48-8.23,9.91-13.24,14.01-.61.5-1.18.55-1.82.04-5.59-4.49-10.79-9.35-14.27-15.73-1.35-2.48-2.08-5.11-1.01-7.94,1.09-2.86,3.67-4.64,6.34-4.34,2.64.3,5.02,2.8,5.45,5.7.14.92.22,1.87.49,2.76.57,1.85,1.94,2.81,3.83,2.81,1.95,0,3.26-.89,3.9-2.73.22-.63.35-1.31.41-1.97.42-4.02,3.13-6.75,6.54-6.56,3.24.18,5.9,3.51,5.82,7.9Z"/>
</svg>