<?xml version="1.0" encoding="UTF-8"?>
<svg id="uuid-59793a10-4862-40aa-a2c8-ae9629e14244" data-name="Layer 1" xmlns="http://www.w3.org/2000/svg" viewBox="0 0 100 100">
  <defs>
    <style>
      .uuid-24ebc7ea-6ad3-46d1-8cbd-53e9ea579501 {
        fill: #364856;
        stroke-width: 0px;
      }
    </style>
  </defs>
  <path class="uuid-24ebc7ea-6ad3-46d1-8cbd-53e9ea579501" d="m48.94.03C21.53.5,0,22.94.02,49.49c-.11,28.17,21.8,49.9,48.55,50.48,29.88.64,51.41-23.02,51.42-49.37,0-28.51-22.12-51.05-51.04-50.56Zm.97,95.79c-25.36-.04-46.01-21.11-45.63-46.01C3.9,24.77,25.29,4.01,50.27,4.18c25.06.18,45.59,20.73,45.56,46.01-.03,25.13-20.94,45.67-45.92,45.63Z"/>
  <path class="uuid-24ebc7ea-6ad3-46d1-8cbd-53e9ea579501" d="m73.48,37.34c-2.39-5.42-8.28-8.87-13.66-8.04-3.91.6-6.82,2.66-9.05,5.79-.54.75-.89.97-1.44.05-.26-.44-.65-.81-.97-1.22-2.57-3.25-6-4.89-10.06-4.75-8.13.3-13.22,7.55-13.26,14.66.09,3.84,1.28,7.68,3.62,11.46,4.41,7.14,10.35,12.88,16.77,18.14,3.13,2.56,7.14,2.14,10.06-.68.56-.54,1.12-1.08,1.71-1.59,5.46-4.72,10.48-9.83,14.26-16.02,3.42-5.59,4.82-11.46,2.02-17.8Zm-5.86,16.11c-3.6,5.74-8.36,10.46-13.46,14.86-.16.14-.37.22-.49.38-2.37,2.87-4.31,2.8-7.24.2-5.74-5.09-11.25-10.36-15-17.17-2.26-4.1-3.21-8.37-1-12.81,1.67-3.35,4.37-5.31,7.16-5.52,5.11.01,9.04,3.45,9.94,7.83.19.92.32,1.85.44,2.77.17,1.29.77,2.26,2.15,2.2,1.24-.06,1.87-.94,1.98-2.2.19-2.14.56-4.23,1.79-6.06,1.84-2.74,4.25-4.48,7.7-4.54,3.72-.07,7.6,3.23,8.78,7.4,1.35,4.76-.32,8.81-2.75,12.67Z"/>
</svg>