<?xml version="1.0" encoding="UTF-8"?>
<svg id="uuid-e7ead254-8029-4301-8e21-bf09361ca4e9" data-name="Layer 1" xmlns="http://www.w3.org/2000/svg" viewBox="0 0 100 100">
  <defs>
    <style>
      .uuid-8341d66e-f4f7-4083-97ac-f4d4828b9c29 {
        fill: #364856;
        stroke-width: 0px;
      }
    </style>
  </defs>
  <path class="uuid-8341d66e-f4f7-4083-97ac-f4d4828b9c29" d="m96.19,41.87c-2.55-2.6-5.12-5.18-7.72-7.73-.77-.75-1.09-1.55-1.07-2.62.06-2.81-.01-5.62.02-8.43.07-5.82-4.93-10.79-10.59-10.56-2.6.11-5.21-.06-7.81.05-1.47.06-2.52-.38-3.55-1.44-2.86-2.95-5.73-5.91-8.79-8.64-3.75-3.35-9.65-3.29-13.45.02-2.08,1.81-4.13,3.69-5.9,5.79-2.76,3.27-5.82,5.45-10.35,4.24-1.41,0-2.81-.02-4.22,0-5.64.08-10.17,4.57-10.26,10.22-.05,3.02-.05,6.04,0,9.05.02.91-.27,1.56-.92,2.19-2.68,2.62-5.29,5.31-7.96,7.94-5.01,4.92-4.63,11.79-.06,16.03,2.75,2.54,5.28,5.32,7.96,7.93.74.72,1,1.46.98,2.47-.05,3.02-.07,6.04.01,9.05.14,4.94,3.97,9.17,8.82,9.81,3.37.45,6.76.14,10.13.18,1.07.01,1.87.32,2.62,1.08,2.61,2.68,5.24,5.36,7.93,7.96,4.84,4.69,11.18,4.65,15.98-.07,2.71-2.66,5.39-5.35,8.06-8.06.63-.64,1.29-.93,2.2-.91,2.76.05,5.52.04,8.28.01,6.46-.07,10.85-4.48,10.88-10.9.01-2.71.04-5.41-.02-8.12-.02-1.02.28-1.76,1.01-2.47,2.61-2.55,5.17-5.13,7.73-7.73,5.1-5.16,5.12-11.21.05-16.37Zm-2.9,13.45c-2.86,2.88-5.75,5.73-8.68,8.53-.9.86-1.3,1.75-1.27,3,.07,3.12.05,6.24,0,9.37-.06,4.55-2.55,7.01-7.1,7.04-2.91.02-5.83.04-8.74,0-1.53-.02-2.76.37-3.86,1.56-2.45,2.63-5.04,5.11-7.58,7.65-.29.29-.58.59-.89.88-3.57,3.39-7.01,3.37-10.5-.08-2.88-2.86-5.78-5.7-8.6-8.61-.99-1.03-2.08-1.42-3.47-1.4-3.02.05-6.04-.06-9.05.02-4.06.11-7.01-2.65-6.88-6.88.1-3.12,0-6.24.03-9.37.01-1.23-.4-2.19-1.28-3.05-2.95-2.86-5.87-5.75-8.78-8.66-3.31-3.32-3.31-7.1-.02-10.41,2.86-2.88,5.7-5.77,8.59-8.61,1.03-1.02,1.52-2.15,1.5-3.61-.05-3.12.1-6.25-.05-9.36-.18-3.66,3-6.71,6.43-6.51,1.61.1,3.23.02,4.84.02,4.97,1.2,8.46-1.02,11.48-4.71,1.64-2,3.62-3.73,5.48-5.54,3.12-3.04,7.01-3.06,10.13,0,2.98,2.91,5.91,5.86,8.82,8.84.98,1.01,2.07,1.45,3.47,1.43,2.91-.05,5.83.09,8.74-.04,5.04-.22,7.31,3.11,7.3,7.31,0,2.91.07,5.83-.03,8.74-.05,1.49.49,2.56,1.52,3.56,2.83,2.76,5.61,5.58,8.4,8.37,3.37,3.37,3.41,7.15.04,10.54Z"/>
  <path class="uuid-8341d66e-f4f7-4083-97ac-f4d4828b9c29" d="m47.95,54.45c-.07-4.52,2.41-7.48,6.04-9.65,2.97-1.77,4.47-4.33,4.24-7.74-.25-3.61-2.2-6.14-5.59-7.37-4.95-1.8-10.26,1.66-10.84,6.93-.05.41-.08.84-.2,1.23-.33,1.12-1.04,1.84-2.27,1.68-1.19-.16-1.77-.95-1.84-2.15-.25-4.01,2.82-8.96,6.83-10.95,5.21-2.59,11.11-1.43,15,2.94,3.7,4.15,4.18,10.32,1.07,15.03-1.09,1.66-2.53,3.02-4.27,4.04-2.55,1.48-4.25,3.47-4.02,6.64.03.46-.04.94-.11,1.4-.18,1.13-.83,1.77-2,1.76-1.26,0-1.9-.74-2.02-1.93-.06-.62-.01-1.25-.01-1.87Z"/>
  <path class="uuid-8341d66e-f4f7-4083-97ac-f4d4828b9c29" d="m50.07,66.85c2.21.04,4.1,1.92,4.06,4.07-.04,2.24-2.02,4.13-4.26,4.05-2.38-.08-4-1.8-3.98-4.25.02-2.18,1.88-3.91,4.17-3.87Z"/>
</svg>