<?xml version="1.0" encoding="UTF-8"?>
<svg id="uuid-79260bf4-b284-493e-8084-2ff9f7f718c2" data-name="Layer 1" xmlns="http://www.w3.org/2000/svg" viewBox="0 0 100 100">
  <defs>
    <style>
      .uuid-c739015c-3b20-4945-b78e-15d4a1a34bec {
        fill: #364856;
        stroke-width: 0px;
      }
    </style>
  </defs>
  <path class="uuid-c739015c-3b20-4945-b78e-15d4a1a34bec" d="m95.94,40.63c-2.63-2.44-5.07-5.07-7.64-7.58-.6-.59-.89-1.18-.86-2.04.06-2.03.06-4.06,0-6.08-.16-6.14-4.27-10.98-10.3-12.15-2.47-.48-4.98-.21-7.47-.2-1.28,0-2.22-.29-3.13-1.26-2.42-2.57-4.94-5.06-7.48-7.52-5.25-5.08-12.98-5.05-18.18.06-2.63,2.59-5.24,5.2-7.83,7.84-.59.6-1.17.89-2.03.86-2.13-.06-4.26-.06-6.39,0-5.72.15-10.69,4.34-11.81,9.95-.55,2.78-.18,5.6-.23,8.4-.02.9-.25,1.54-.9,2.18-2.79,2.73-5.51,5.52-8.27,8.27-4.55,4.53-4.59,12.98.15,17.45,2,1.89,3.79,4.02,5.88,5.81,2.42,2.07,3.99,4.32,3.12,7.66,0,.94-.01,1.87,0,2.81.11,6.82,5.48,12.21,12.31,12.35,1.92.04,3.85.09,5.77-.02,1.16-.06,1.93.35,2.7,1.15,2.61,2.69,5.32,5.27,7.92,7.96,4.47,4.64,12.98,4.63,17.46,0,1.45-1.49,2.94-2.94,4.42-4.41,1.55-1.53,2.87-3.64,4.74-4.43,1.86-.78,4.29-.23,6.46-.26.31,0,.62,0,.94,0,5.91-.18,10.83-4.39,11.92-10.2.51-2.68.19-5.39.22-8.09.01-.95.24-1.65.94-2.32,2.55-2.45,4.97-5.04,7.54-7.45,5.54-5.2,5.34-13.8.02-18.73Zm-46.07,38.43c-3.45-.04-6.13-2.81-6.1-6.34.02-3.39,2.95-6.22,6.34-6.14,3.39.08,6.15,2.95,6.14,6.39,0,3.37-2.9,6.13-6.38,6.09Zm7.95-27.78c-2.58,1.97-3.93,4.01-3.75,7.26.12,2.13-1.59,3.7-3.69,3.9-1.92.18-3.84-1.02-4.31-2.86-.23-.89-.18-1.85-.23-2.47.08-5.18,2.01-9.04,6.09-11.76,1.56-1.04,2.45-2.41,2.15-4.33-.25-1.61-1.17-2.74-2.74-3.28-2.51-.87-5.04.7-5.42,3.34-.1.67-.14,1.36-.35,1.99-.58,1.76-2.68,2.98-4.44,2.66-2.22-.4-3.64-1.97-3.59-4.21.1-4.61,2.19-8.22,6.09-10.59,4.05-2.46,8.31-2.4,12.44-.12,7.69,4.25,8.71,15.13,1.74,20.47Z"/>
</svg>