<?xml version="1.0" encoding="UTF-8"?>
<svg id="uuid-797c9a20-e28f-4f44-aa8f-9c3f189ac0b6" data-name="Layer 1" xmlns="http://www.w3.org/2000/svg" viewBox="0 0 100 100">
  <defs>
    <style>
      .uuid-d4c38584-50cf-4529-9a23-fb61b73cef4f {
        fill: #364856;
        stroke-width: 0px;
      }
    </style>
  </defs>
  <g>
    <path class="uuid-d4c38584-50cf-4529-9a23-fb61b73cef4f" d="m66.44,46.65c-1.45-1.32-2.78-2.53-4.1-3.74-.33-.3-.26-.75-.32-1.13-.96-6.84-6.36-12.69-13.12-14.37-9.24-2.3-18.38,3.03-21.15,11.82-1.56,4.95-.88,9.68,1.51,14.24,2.85,5.43,6.78,10.02,11.08,14.32,1.23,1.23,2.54,2.4,3.8,3.59.2.19.46.33.46.68,0,1.71,0,3.41,0,5.25-1.32-.93-2.41-1.92-3.5-2.9-5.39-4.83-10.27-10.11-14.12-16.28-1.96-3.14-3.51-6.48-4.09-10.17-.59-3.73-.29-7.43,1.12-10.96,3.19-8.04,9.05-12.89,17.63-14.18,11.54-1.73,22.28,6.24,24.47,17.43.4,2.06.6,4.13.33,6.4Z"/>
    <path class="uuid-d4c38584-50cf-4529-9a23-fb61b73cef4f" d="m76.99,62.06c-5.2-4.7-10.37-9.43-15.54-14.16-.39-.36-.61-.42-1.03-.03-5.25,4.82-10.51,9.61-15.79,14.4-.37.33-.29.51-.01.8.52.53,1.01,1.09,1.51,1.64q.95,1.04,2.01.22s.1.02.19.05c0,2.16-.03,4.33,0,6.5.06,3.33,2.41,5.85,5.66,5.9,4.61.08,9.22.07,13.82,0,3.27-.05,5.64-2.6,5.66-5.88.01-2.2,0-4.41,0-6.79.3.26.49.39.63.56.42.53.75.47,1.17-.04.53-.67,1.11-1.31,1.73-1.91.49-.47.54-.75-.02-1.26Zm-7.79,9.3c0,1.18-.54,1.74-1.72,1.74-2.2.02-4.41,0-6.61,0s-4.24,0-6.35,0c-1.32,0-1.89-.55-1.9-1.87-.01-3.29,0-6.58-.01-9.88,0-.41.13-.68.43-.96,2.46-2.22,4.92-4.45,7.35-6.71.45-.42.68-.37,1.1.01,2.39,2.22,4.8,4.41,7.22,6.6.34.31.51.61.51,1.09-.02,3.32,0,6.64-.01,9.96Z"/>
    <path class="uuid-d4c38584-50cf-4529-9a23-fb61b73cef4f" d="m44.58,35.43c-5.04.02-9.08,4.07-9.07,9.1,0,5.04,4.06,9.06,9.11,9.05,5.04-.01,9.1-4.07,9.1-9.09,0-5-4.12-9.08-9.13-9.06Zm.02,13.87c-2.65,0-4.79-2.12-4.8-4.77-.01-2.64,2.11-4.78,4.76-4.82,2.65-.03,4.88,2.18,4.86,4.82-.01,2.63-2.18,4.76-4.82,4.77Z"/>
    <path class="uuid-d4c38584-50cf-4529-9a23-fb61b73cef4f" d="m61.02,62.3c.89,0,1.77.02,2.66,0,.4-.01.54.09.54.51-.02,1.8-.02,3.6,0,5.4,0,.37-.1.49-.48.49-1.83-.02-3.66-.02-5.48,0-.44,0-.52-.18-.51-.56.01-1.77.02-3.54,0-5.31,0-.42.14-.54.55-.53.91.02,1.83,0,2.74,0Z"/>
  </g>
  <path class="uuid-d4c38584-50cf-4529-9a23-fb61b73cef4f" d="m48.94.03C21.53.5,0,22.94.02,49.49c-.11,28.17,21.8,49.9,48.55,50.48,29.88.64,51.41-23.02,51.42-49.37,0-28.51-22.12-51.05-51.04-50.56Zm.97,95.79c-25.36-.04-46.01-21.11-45.63-46.01C3.9,24.77,25.29,4.01,50.27,4.18c25.06.18,45.59,20.73,45.56,46.01-.03,25.13-20.94,45.67-45.92,45.63Z"/>
</svg>