<?xml version="1.0" encoding="UTF-8"?>
<svg id="uuid-31b9ea7f-e5b7-4929-9f8f-1056871f1090" data-name="Layer 1" xmlns="http://www.w3.org/2000/svg" viewBox="0 0 100 100">
  <defs>
    <style>
      .uuid-bdadfed1-7bc4-425b-bd54-c962a3b3f346 {
        fill: #364856;
        stroke-width: 0px;
      }
    </style>
  </defs>
  <path class="uuid-bdadfed1-7bc4-425b-bd54-c962a3b3f346" d="m99.86,39.49c-.01-3.43-1.04-6.61-2.84-9.58-1.96-3.23-4.9-5.34-7.96-7.31-1.26-.81-1.7-1.71-1.67-3.17.08-4.21.02-8.42.04-12.63,0-1.03-.31-1.89-1.3-2.26-.82-.31-1.65-.19-2.28.52-.53.6-.51,1.34-.51,2.07,0,3.27-.02,6.55,0,9.82,0,1.25-.36,1.51-1.44.75-2-1.4-4.04-2.73-6.09-4.07-5.73-3.75-11.23-7.88-17.18-11.27-4.82-2.75-9.92-3.04-15.13-1.01-2.89,1.13-5.34,2.97-7.87,4.67-9.04,6.08-18.11,12.14-27.11,18.29C2.82,28.19.02,33.64.08,40.57c.06,6.65.01,13.31.01,19.96h.01c0,7.17-.07,14.35.02,21.52.1,8.82,7.6,17.07,16.39,17.73,4.86.37,9.77.1,14.66.08,1.26,0,2.04-.7,2.12-2.02.04-.57.05-1.14.05-1.71,0-11.59-.01-23.18,0-34.78,0-4.76,2.46-7.18,7.2-7.19,6.34,0,12.69.02,19.03-.01,2.31-.01,4.3.59,5.76,2.49,1.11,1.44,1.35,3.1,1.35,4.85,0,11.7,0,23.39,0,35.09,0,2.86.45,3.3,3.37,3.3,3.85,0,7.69,0,11.54,0,9.68,0,18.17-8.15,18.25-17.82.12-14.19.06-28.38.02-42.57Zm-19.25,56.26c-2.7-.15-5.41-.08-8.11,0-1.29.04-1.69-.38-1.68-1.69.05-10.45.03-20.9.02-31.35,0-1.09-.07-2.18-.19-3.26-.63-5.42-4.63-9.26-10.1-9.36-7.07-.13-14.14-.09-21.21-.01-5.5.06-10.18,4.86-10.1,10.71.15,10.76.04,21.52.04,32.29,0,.52-.02,1.04-.02,1.56,0,.79-.41,1.11-1.17,1.11-3.64-.02-7.3.2-10.91-.09-6.8-.56-12.96-6.64-12.87-14.2.08-6.97.02-13.93.02-20.9,0-6.45.13-12.9-.04-19.34-.16-6.05,2.18-10.59,7.2-13.93,10.07-6.7,20.04-13.54,30.11-20.24,5.66-3.76,11.45-3.62,17.07.12,10.19,6.8,20.34,13.67,30.49,20.53,4.6,3.11,6.62,7.62,6.64,13.04.05,13.36,0,26.72.02,40.08.02,9.14-7.69,15.36-15.2,14.95Z"/>
</svg>