<?xml version="1.0" encoding="UTF-8"?>
<svg id="uuid-935ae91f-0c40-4efa-b903-013010874a58" data-name="Layer 1" xmlns="http://www.w3.org/2000/svg" viewBox="0 0 100 100">
  <defs>
    <style>
      .uuid-24521b43-4dc0-4160-be51-c229a2955ef9 {
        fill: #364856;
        stroke-width: 0px;
      }
    </style>
  </defs>
  <path class="uuid-24521b43-4dc0-4160-be51-c229a2955ef9" d="m50.22.02C22.56-.02.07,22.27.03,49.78c-.04,27.73,22.29,50.18,49.91,50.2,27.61.01,50.02-22.35,50.04-49.91C99.99,22.52,77.66.07,50.22.02Zm-6.08,76.54c-.64.29-1.26-.71-1.82-1.21-6.54-5.75-12.56-11.94-16.72-19.71-1.85-3.46-3.12-7.1-2.94-10.85-.31-12.2,9.96-22.97,23.31-22.18,9.88.58,18.52,8.53,19.97,18.31.22,1.51.25,3,.25,4.51,0,.74-.32.85-.84.38-1.06-.95-2.1-1.91-3.14-2.89-.37-.35-.38-.85-.46-1.32-1.38-8.13-8.37-14.3-16.1-14.71-9.27-.48-16.69,5.76-18.44,13.95-1.11,5.2.31,9.89,2.97,14.32,3.31,5.53,7.58,10.27,12.31,14.57,1.5,1.37,2.23,2.72,1.94,4.67-.11.74.38,1.85-.28,2.15Zm9.61-32.09c-.01,5.14-4.12,9.2-9.33,9.2-5.23,0-9.3-4.01-9.31-9.19-.01-5.21,4.14-9.43,9.3-9.44,5.13-.01,9.35,4.24,9.34,9.42Zm23.14,18.79c-.66.62-1.21,1.35-1.83,2.01-.28.3-.54.74-1.15.34-.63-.18-.46.38-.47.69-.02,1.59,0,3.19-.02,4.79-.06,3.82-2.54,6.29-6.37,6.31-4.27.02-8.54.02-12.81,0-3.8-.02-6.38-2.61-6.46-6.44-.03-1.55,0-3.1-.01-4.66,0-.45.05-.94-.68-.56-.41.21-.62-.19-.84-.43-.65-.69-1.24-1.44-1.92-2.09-.58-.56-.5-.97.07-1.48,5.2-4.73,10.39-9.46,15.56-14.22.66-.6,1.03-.28,1.51.16,3.56,3.26,7.14,6.5,10.71,9.75,1.53,1.39,3.04,2.81,4.6,4.16.65.57.81,1.01.11,1.67Z"/>
  <path class="uuid-24521b43-4dc0-4160-be51-c229a2955ef9" d="m40.01,44.4c0-2.55,1.99-4.52,4.49-4.48,2.41.04,4.36,2.07,4.36,4.52,0,2.43-1.99,4.47-4.39,4.49-2.45.02-4.47-2.03-4.46-4.53Z"/>
  <path class="uuid-24521b43-4dc0-4160-be51-c229a2955ef9" d="m67.72,59.93c-2.05-1.85-4.11-3.68-6.1-5.59-.74-.71-1.25-.64-1.94,0-2.05,1.91-4.12,3.79-6.21,5.67-.51.46-.78.97-.77,1.68.03,3.02,0,6.04.02,9.05.01,1.41.38,1.77,1.77,1.79,2.03.02,4.05,0,6.08,0,2.07,0,4.14.02,6.21,0,1.44-.02,1.76-.32,1.77-1.76.03-3.02,0-6.04.02-9.05,0-.76-.3-1.3-.85-1.79Zm-7.11,8.49c-3.45,0-3,.39-3.02-3.03-.02-3.24,0-3.24,3.19-3.24,3.55.06,3.07-.49,3.07,3.08,0,3.68.51,3.18-3.24,3.19Z"/>
</svg>