<?xml version="1.0" encoding="UTF-8"?>
<svg id="uuid-5f1b7ca6-bb13-41fc-881a-ec264125ae87" data-name="Layer 1" xmlns="http://www.w3.org/2000/svg" viewBox="0 0 100 100">
  <defs>
    <style>
      .uuid-ff4e245e-d22a-43a7-8cec-a889e6061a6f {
        fill: #364856;
        stroke-width: 0px;
      }
    </style>
  </defs>
  <path class="uuid-ff4e245e-d22a-43a7-8cec-a889e6061a6f" d="m33.24,77.29c0,5.88-.09,11.76.04,17.64.07,3.03-1.62,5.32-5,5.04-2.43-.2-4.89-.09-7.33-.03C9.95,100.2-.02,91.11,0,79.13c.02-12.54.05-25.09-.01-37.63-.04-8.04,3.27-14.22,9.88-18.69,9.34-6.32,18.67-12.65,28.04-18.91C41.98,1.18,46.45-.33,51.43.06c3.99.31,7.54,1.82,10.83,4,6.45,4.29,12.87,8.6,19.31,12.91.43.29.88.84,1.35.62.61-.29.3-1.03.3-1.57.02-2.45-.03-4.89.02-7.34.06-2.72,1.71-4.35,4.26-4.33,2.38.02,4.07,1.73,4.11,4.36.06,4.58.04,9.16,0,13.74,0,1.01.28,1.71,1.09,2.41,4.46,3.88,7.04,8.87,7.12,14.72.2,13.63.3,27.28-.02,40.9-.2,8.79-6.43,16.37-15.59,18.84-1.62.44-3.24.66-4.93.63-2.91-.05-5.83,0-8.74-.02-1.94-.01-3.48-1.35-3.76-3.26-.12-.82-.14-1.66-.14-2.49,0-11.29,0-22.59,0-33.88,0-.62.02-1.25-.02-1.87-.17-2.5-1.69-4.11-4.18-4.13-8.33-.06-16.65-.07-24.98,0-2.76.02-4.2,1.73-4.21,4.73-.03,6.09,0,12.18-.01,18.27Z"/>
</svg>