<?xml version="1.0" encoding="UTF-8"?>
<svg id="uuid-46d5deac-5dd3-4219-8e6a-2bc70529a39e" data-name="Layer 1" xmlns="http://www.w3.org/2000/svg" viewBox="0 0 100 100">
  <defs>
    <style>
      .uuid-6a45daeb-191c-4371-9ea0-02e61a7abb00 {
        fill: #364856;
        stroke-width: 0px;
      }
    </style>
  </defs>
  <path class="uuid-6a45daeb-191c-4371-9ea0-02e61a7abb00" d="m48.94.03C21.53.5,0,22.94.02,49.49c-.11,28.17,21.8,49.9,48.55,50.48,29.88.64,51.41-23.02,51.42-49.37,0-28.51-22.12-51.05-51.04-50.56Zm1.6,20.65c3.26-.03,5.85,2.53,5.88,5.79.02,3.25-2.55,5.89-5.77,5.92-3.23.03-5.86-2.57-5.88-5.81-.02-3.28,2.51-5.87,5.77-5.89Zm5.88,55.2c0,2.39-1.02,3.42-3.39,3.43-1.64,0-3.28.01-4.92,0-2.27-.01-3.34-1.09-3.35-3.36,0-8.32,0-16.64.01-24.96,0-.72-.18-1.24-.71-1.72-.86-.79-1.66-1.65-2.49-2.47-.52-.51-.76-1.08-.48-1.78.26-.66.83-.92,1.49-.92,3.65-.01,7.3-.06,10.94.02,1.83.04,2.89,1.28,2.89,3.17.02,4.8,0,9.6,0,14.4,0,4.73,0,9.45,0,14.18Z"/>
</svg>