<?xml version="1.0" encoding="UTF-8"?>
<svg id="uuid-2dfa8f1b-de11-4275-a52b-08439745d7a1" data-name="Layer 1" xmlns="http://www.w3.org/2000/svg" viewBox="0 0 100 100">
  <defs>
    <style>
      .uuid-db3e00ec-a226-432d-b38a-20663203f940 {
        fill: #364856;
        stroke-width: 0px;
      }
    </style>
  </defs>
  <path class="uuid-db3e00ec-a226-432d-b38a-20663203f940" d="m.02,50.13c0-8.68,0-17.37,0-26.05C.02,12.04,7.45,2.29,19.29-.04c7.26-1.43,14.81-1.71,21.78,1.66,8.67,4.19,13.35,11.25,13.94,20.91.1,1.63.1,3.29-.02,4.92-.23,3.13-2.77,5.55-5.93,5.77-2.98.2-5.79-1.96-6.48-4.99-.39-1.73-.16-3.48-.24-5.22-.27-6.05-5.13-10.86-11.19-10.96-2.43-.04-4.87-.05-7.31.01-6.02.14-11.07,5.06-11.09,11.07-.07,18.06-.06,36.11.02,54.17.03,5.94,5.05,10.88,10.97,10.98,3.17.05,6.36.37,9.5-.24,5.16-1,8.84-5.34,9.09-10.57.08-1.69-.08-3.39.2-5.07.5-3,3.23-5.32,6.23-5.27,3.05.06,5.94,2.41,6.21,5.34.94,10.39-2.38,19.43-11.82,25.2-3.45,2.11-7.25,3.25-11.27,3.31-5.22.08-10.47.49-15.56-1.25C7,96.5.21,87.48.07,77.61c-.13-9.16-.03-18.32-.03-27.48,0,0-.02,0-.02,0Z"/>
  <path class="uuid-db3e00ec-a226-432d-b38a-20663203f940" d="m81.65,43.71c-3.16-3.16-6.01-6-8.84-8.84-1.94-1.95-3.97-3.83-5.77-5.9-3.28-3.77-1.59-9.05,3.22-10.36,2.39-.65,4.42.13,6.08,1.78,6.43,6.37,12.92,12.69,19.18,19.23,6.19,6.46,5.89,15.2-.45,21.54-6.25,6.25-12.48,12.53-18.76,18.75-3.56,3.52-9.12,2.28-10.62-2.37-.81-2.53-.16-4.77,1.74-6.66,4.36-4.33,8.68-8.69,13.04-13.02.37-.36.84-.62,1.27-.92l-.25-.5c-2.61,0-5.21,0-7.82,0-14.56.03-29.12.07-43.68.08-3.82,0-6.73-2.83-6.68-6.38.05-3.62,2.89-6.31,6.73-6.32,16.46-.04,32.93-.07,49.39-.1.57,0,1.14,0,2.2,0Z"/>
</svg>