<?xml version="1.0" encoding="UTF-8"?>
<svg id="uuid-e1281193-7155-44f7-859f-0ee464e49982" data-name="Layer 1" xmlns="http://www.w3.org/2000/svg" viewBox="0 0 100 100">
  <defs>
    <style>
      .uuid-5387a92f-5428-40ad-a61f-b2bdc345f56b {
        fill: #364856;
        stroke-width: 0px;
      }
    </style>
  </defs>
  <path class="uuid-5387a92f-5428-40ad-a61f-b2bdc345f56b" d="m4.24,50.15c0,10.46.07,20.93-.02,31.39-.07,8.01,6.97,14.57,14.6,14.28,4.16-.16,8.33-.12,12.49,0,7.45.19,14.42-6.19,14.44-13.98.01-4.69.03-9.37.04-14.06,0-.78,0-1.56,0-2.34.03-1.82.85-2.95,2.11-2.92,1.32.04,2.08,1.09,2.08,2.94,0,5.36.04,10.73,0,16.09-.1,10.22-8.47,18.46-18.69,18.46-4.27,0-8.54,0-12.81,0-10.01,0-18.41-8.13-18.44-18.16C-.05,60.39-.15,38.94.09,17.49.17,10.37,4.26,5.29,10.5,1.97,13.18.55,16.05,0,19.07.01c3.96.02,7.91.08,11.87,0,8.13-.18,15.79,5.43,18.18,13.33.55,1.84.87,3.75.87,5.69,0,5.26,0,10.52,0,15.77,0,.46-.04.94-.17,1.38-.28.94-1.06,1.28-1.93,1.3-.89.01-1.65-.39-1.88-1.33-.16-.65-.2-1.33-.21-2.01-.09-5.52.16-11.04-.14-16.55-.39-7.08-6.43-13.12-13.48-13.33-4.79-.14-9.58-.14-14.37,0-7.32.22-13.46,6.38-13.54,13.71-.13,10.72-.03,21.45-.03,32.17h0Z"/>
  <path class="uuid-5387a92f-5428-40ad-a61f-b2bdc345f56b" d="m60.55,48.07c10.93,0,21.86,0,32.79-.01.57,0,1.37.33,1.67-.42.26-.66-.3-1.2-.72-1.63-3.11-3.14-6.26-6.25-9.4-9.36-2.62-2.6-5.27-5.18-7.88-7.8-1.11-1.11-1.18-2.24-.3-3.15.87-.88,2.06-.87,3.18.23,5.8,5.68,11.66,11.29,17.31,17.12,3.8,3.92,3.82,9.92.02,13.85-5.67,5.87-11.57,11.53-17.41,17.24-1.09,1.07-2.31,1.03-3.17.09-.85-.92-.75-1.98.42-3.14,5.22-5.16,10.46-10.29,15.68-15.45.7-.69,1.36-1.43,1.97-2.21.59-.74.47-1.25-.6-1.24-.47,0-.94,0-1.41,0-21.18,0-42.37,0-63.55,0-.94,0-1.86-.02-2.77-.32-1.03-.35-1.34-1.12-1.27-2.07.07-.93.63-1.54,1.57-1.69.56-.09,1.14-.07,1.71-.07,10.72,0,21.45,0,32.17,0Z"/>
</svg>