<?xml version="1.0" encoding="UTF-8"?>
<svg id="uuid-12747889-9e42-4dc3-86e2-3ca5b229b2b0" data-name="Layer 1" xmlns="http://www.w3.org/2000/svg" viewBox="0 0 100 100">
  <defs>
    <style>
      .uuid-4e79696d-20b0-4cab-9d81-2bb6299a28c8 {
        fill: #364856;
        stroke-width: 0px;
      }
    </style>
  </defs>
  <path class="uuid-4e79696d-20b0-4cab-9d81-2bb6299a28c8" d="m98.52,75.89c-3.02-2.96-5.83-6.16-9.03-8.92-3-2.59-4.45-5.28-4.11-9.47.3-3.79,1.02-7.04,3.47-10.02,4.3-5.23,4.29-8.78,0-14.03-2.42-2.97-3.85-6.14-3.32-9.48.14-7.79-1.42-10.17-8.38-12-4.27-1.12-6.91-3.79-9.22-7.31-2.91-4.45-6.59-5.72-11.39-3.71-4.51,1.89-8.68,1.82-13.18-.03-4.72-1.94-8.49-.73-11.2,3.62-2.57,4.12-5.91,6.64-10.62,7.87-5.32,1.39-7.36,4.17-7.03,9.61.29,4.77-.93,8.68-4.02,12.36-3.51,4.19-3.52,7.98-.02,12.17,3.08,3.68,4.57,7.61,3.98,12.35-.07.58-.13,1.25.08,1.76.63,1.59-.27,2.47-1.27,3.47-3.98,3.92-7.89,7.91-11.86,11.83-1,.99-1.54,2.04-1.01,3.39.5,1.26,1.64,1.55,2.88,1.71,4.1.52,8.19,1.13,12.29,1.65,1.06.14,1.68.51,1.83,1.67.51,3.94,1.13,7.86,1.62,11.8.18,1.46.19,2.97,1.82,3.6,1.77.69,2.82-.54,3.91-1.63,5.56-5.58,10.96-11.32,16.74-16.65,4.61-4.25,12.43-4.84,17.19,0,5.57,5.67,11.24,11.26,16.83,16.91,1.07,1.08,2.16,2.01,3.76,1.34,1.48-.62,1.53-2.04,1.71-3.42.5-3.94,1.1-7.86,1.61-11.8.14-1.08.55-1.65,1.7-1.8,4.1-.52,8.19-1.14,12.29-1.66,1.33-.17,2.56-.42,3.07-1.82.5-1.37-.14-2.4-1.12-3.37Zm-68.73,10.08c-1.99,1.92-3.87,3.96-6.18,6.35-.58-3.98-1.15-7.36-1.53-10.76-.25-2.22-1.31-3.27-3.52-3.51-3.34-.37-6.67-.93-10.77-1.52,3.33-3.24,6.23-6.05,9.1-8.89.55-.54.95-.73,1.68-.26,1.5.97,3.23,1.44,4.94,1.86,3.11.75,5.51,2.42,7.21,5.13,1.3,2.09,2.72,4.08,5.49,5.74-2.23,2.03-4.37,3.89-6.41,5.86Zm27-11.29c-4.55-1.79-9.01-1.76-13.56,0-4.58,1.77-5.35,1.6-7.89-2.5-2.65-4.28-6.33-6.85-11.18-8.05-4.27-1.05-4.88-1.78-4.6-6.15.34-5.27-1.09-9.76-4.56-13.78-2.68-3.1-2.68-4.4.04-7.53,3.49-4.02,4.84-8.53,4.52-13.79-.26-4.29.24-4.97,4.43-6.01,5.03-1.25,8.8-3.94,11.53-8.37,2.27-3.69,3.37-4,7.33-2.38,4.79,1.97,9.47,1.94,14.26.02,4.05-1.62,5.04-1.37,7.33,2.33,2.73,4.43,6.48,7.14,11.52,8.38,4.4,1.09,4.56,1.58,4.47,7.79-.41,4.14,1.25,8.05,4.17,11.6,3.09,3.75,3.14,4.68.08,8.32-3.23,3.84-4.53,8.15-4.27,13.13.26,4.74-.2,5.31-4.82,6.5-4.74,1.22-8.33,3.78-10.94,7.97-2.56,4.12-3.34,4.31-7.88,2.52Zm24.61,3.37c-2.22.25-3.25,1.33-3.49,3.54-.37,3.35-.93,6.67-1.38,9.78-3.9-3.92-7.83-7.88-11.75-11.82,1.56-.99,3.06-2.78,4.25-4.8,1.82-3.12,4.52-4.91,7.99-5.67.82-.18,1.75-.29,2.38-.76,2.5-1.88,4.04-.55,5.72,1.31,2.08,2.3,4.4,4.38,6.97,6.91-3.91.57-7.29,1.14-10.69,1.52Z"/>
  <path class="uuid-4e79696d-20b0-4cab-9d81-2bb6299a28c8" d="m74.09,33.9c-.44-1.37-1.54-1.73-2.73-1.93-3.57-.61-7.14-1.25-10.74-1.7-1.41-.18-2.27-.66-2.91-1.97-1.58-3.26-3.31-6.45-4.96-9.67-.6-1.17-1.22-2.14-2.8-2.13-1.6,0-2.16,1.06-2.75,2.21-1.66,3.22-3.37,6.42-4.97,9.67-.59,1.2-1.36,1.72-2.69,1.89-3.59.47-7.17,1.08-10.74,1.68-1.27.21-2.49.55-2.93,2.03-.41,1.37.34,2.24,1.2,3.11,2.2,2.22,4.25,4.62,6.62,6.64,2.09,1.78,2.47,3.65,1.89,6.22-.71,3.12-.99,6.34-1.34,8.73-.2,3.7,1.47,4.84,4.11,3.56,3.41-1.65,6.82-3.32,10.16-5.11,1.11-.59,1.94-.56,3.02.01,3.35,1.77,6.75,3.46,10.16,5.1,2.65,1.28,4.36.12,4.06-2.84-.34-3.27-.86-6.53-1.4-9.77-.34-2.06-.44-3.82,1.45-5.43,2.56-2.19,4.79-4.76,7.18-7.16.87-.87,1.55-1.77,1.11-3.13Zm-13.81,8.78c-1.36,1.17-1.78,2.5-1.45,4.28.53,2.8.87,5.65,1.34,8.82-2.52-1.26-4.72-2.17-6.7-3.41-2.45-1.53-4.63-1.44-7.04.06-1.99,1.23-4.18,2.13-6.6,3.34.47-3.16.82-6.05,1.34-8.9.3-1.67-.07-2.94-1.33-4.08-2.12-1.92-4.15-3.93-6.66-6.32,3.53-.61,6.37-1.19,9.24-1.56,1.7-.22,2.74-1.05,3.47-2.53,1.25-2.55,2.59-5.06,4.1-7.99,1.48,2.84,2.82,5.31,4.06,7.84.77,1.57,1.81,2.47,3.63,2.69,2.83.34,5.63.94,8.99,2.1-2.12,1.9-4.22,3.82-6.37,5.68Z"/>
</svg>