<?xml version="1.0" encoding="UTF-8"?>
<svg id="uuid-84ad09e7-7846-4c10-8e6d-31a5d461dd5b" data-name="Layer 1" xmlns="http://www.w3.org/2000/svg" viewBox="0 0 100 100">
  <defs>
    <style>
      .uuid-516e9690-646e-4e7e-9509-c2837542b206 {
        fill: #364856;
        stroke-width: 0px;
      }
    </style>
  </defs>
  <path class="uuid-516e9690-646e-4e7e-9509-c2837542b206" d="m37.04,85.66c-4.61,4.62-8.97,9.09-13.46,13.43-1.79,1.73-4.06.83-4.45-1.7-.64-4.09-1.22-8.18-1.67-12.3-.17-1.6-.61-2.37-2.37-2.55-4.11-.41-8.21-1.04-12.3-1.64-2.68-.4-3.63-2.64-1.84-4.54,2.9-3.07,5.95-6.01,8.94-9,.46-.46.87-1.11,1.51-.05,2.46,4.08,6.51,5.73,10.87,6.73,1.87.43,3.17,1.33,4.14,2.97,2.42,4.1,5.49,7.49,10.62,8.65Z"/>
  <path class="uuid-516e9690-646e-4e7e-9509-c2837542b206" d="m62.81,85.7c5.1-1.21,8.15-4.38,10.49-8.35,1.05-1.78,2.4-2.86,4.47-3.34,4.35-.99,8.42-2.58,10.82-6.75.47-.81.84-.54,1.34-.04,3.1,3.12,6.3,6.14,9.28,9.37,1.56,1.68.56,3.9-1.85,4.28-4.08.64-8.18,1.26-12.29,1.66-1.81.18-2.4.84-2.58,2.62-.41,4.11-1.02,8.21-1.67,12.29-.38,2.39-2.63,3.38-4.29,1.79-4.58-4.35-9.01-8.85-13.73-13.53Z"/>
  <path class="uuid-516e9690-646e-4e7e-9509-c2837542b206" d="m88.61,33.08c-2.3-2.76-3.32-5.62-3.13-9.26.41-7.75-1.4-10.23-8.82-12.13-3.44-.88-5.79-2.64-7.68-5.6-4.06-6.37-7.1-7.42-14.03-4.66-3.46,1.38-6.51,1.37-9.96-.01-6.81-2.73-9.99-1.69-13.87,4.49-1.97,3.15-4.5,4.95-8.07,5.89-7.23,1.9-8.96,4.25-8.57,11.78.19,3.71-.75,6.66-3.14,9.51-4.65,5.55-4.6,8.95.02,14.59,2.26,2.75,3.82,5.58,3.06,8.65-.19,7.91,1.45,10.88,7.67,12.34,4.48,1.06,7.4,3.38,9.76,7.22,2.95,4.81,6.55,6.07,11.71,3.91,4.44-1.86,8.4-1.86,12.84.01,5.1,2.14,8.55.72,11.78-3.9.39-.55.79-1.1,1.11-1.69,1.55-2.88,3.99-4.32,7.14-5.1,7.51-1.86,9.44-4.39,9.04-12.21-.19-3.64.84-6.49,3.13-9.26,4.65-5.61,4.65-9,0-14.59Zm-15.74,3.98c-2.39,2.4-4.63,4.96-7.18,7.18-1.7,1.48-1.71,3.08-1.4,4.98.54,3.34,1.1,6.67,1.46,10.03.33,3.1-1.39,4.23-4.2,2.86-3.41-1.66-6.82-3.34-10.17-5.12-1.03-.55-1.77-.52-2.79.02-3.28,1.73-6.63,3.34-9.96,4.97-3.13,1.53-4.66.49-4.34-3.96.41-2.72.94-6.4,1.55-10.07.21-1.28-.06-2.2-1.05-3.14-2.63-2.51-5.13-5.16-7.68-7.75-.92-.93-1.76-1.87-1.25-3.33.47-1.33,1.64-1.65,2.81-1.85,3.66-.61,7.33-1.22,11.01-1.72,1.23-.17,1.94-.68,2.49-1.79,1.64-3.33,3.4-6.6,5.1-9.9.56-1.09,1.13-2.01,2.59-2.06,1.56-.04,2.24.86,2.85,2.06,1.64,3.23,3.38,6.42,4.98,9.68.62,1.28,1.43,1.86,2.87,2.04,3.6.45,7.18,1.08,10.75,1.69,1.17.2,2.35.51,2.81,1.85.5,1.46-.33,2.4-1.25,3.33Z"/>
  <path class="uuid-516e9690-646e-4e7e-9509-c2837542b206" d="m66.45,36.9c-2.04,1.89-4.05,3.83-6.15,5.66-1.45,1.26-1.79,2.68-1.43,4.53.54,2.72.84,5.49,1.29,8.55-2.71-1.33-5.23-2.45-7.62-3.78-1.73-.96-3.23-1.04-4.99-.05-2.41,1.36-4.96,2.48-7.73,3.85.43-2.99.69-5.75,1.26-8.43.45-2.09-.12-3.58-1.66-4.95-2.02-1.78-3.93-3.68-6.29-5.91,3.59-.62,6.48-1.18,9.38-1.58,1.6-.22,2.6-1,3.3-2.4,1.28-2.56,2.61-5.1,4.14-8.09,1.46,2.77,2.82,5.22,4.04,7.74.81,1.68,1.93,2.58,3.85,2.79,2.76.31,5.49.91,8.23,1.38.13.22.26.45.38.67Z"/>
</svg>