<?xml version="1.0" encoding="UTF-8"?>
<svg id="uuid-9bde2933-1b6c-4bc3-9fbb-14989c3c3351" data-name="Layer 1" xmlns="http://www.w3.org/2000/svg" viewBox="0 0 100 100">
  <defs>
    <style>
      .uuid-05a3f6fc-e4ac-4736-9fb2-e9c572f8f586 {
        fill: #364856;
        stroke-width: 0px;
      }
    </style>
  </defs>
  <path class="uuid-05a3f6fc-e4ac-4736-9fb2-e9c572f8f586" d="m94.95,86.03c-.48-1.77-.18-3.28.71-4.9,3.85-7,5.21-14.57,3.8-22.39-2.41-13.41-10.13-22.73-22.76-27.9-.76-.31-1.25-.55-1.47-1.49C71.34,12.3,55.89.05,38.3.03c-2.44,0-4.85.25-7.25.71C5.75,5.55-7.62,33.49,4.56,56.16c.72,1.34.98,2.57.61,4.07-.71,2.87-1.29,5.78-1.87,8.69-.86,4.28,2.18,7.16,6.35,6.03,3.03-.82,6.05-1.66,9.06-2.53,1-.29,1.97-.41,2.95.07,2.46,1.2,5.03,2.08,7.69,2.71.72.17,1.05.52,1.31,1.21,7.6,19.63,27.97,28.55,47.44,20.76,1.06-.42,2.04-.47,3.11-.22,3.06.7,6.11,1.42,9.19,2.06,4.35.9,7.11-1.92,6.14-6.23-.51-2.25-.99-4.52-1.59-6.75Zm-69.42-17.14c-3.5-1.58-6.76-1.72-10.29-.45-2.31.83-4.74,1.33-7.35,2.04.72-3.46,1.29-6.71,2.09-9.91.58-2.31.06-4.31-1.04-6.31-2.26-4.1-3.68-8.45-4.02-13.15-.91-12.9,4-23.15,14.5-30.47,19.44-13.55,46.73-2.36,51.24,20.85,3.56,18.27-7.88,35.55-25.97,39.26-6.59,1.35-13.05.91-19.16-1.86Zm65.32,20.41c.51,1.57.74,3.23,1.14,5.01-1.68.09-3.18-.55-4.71-.84-1.98-.37-3.92-.89-5.89-1.32-1.94-.43-3.73.07-5.53.8-15.22,6.17-32.27-.37-39.47-15.12-.26-.52-.58-1.02-.58-1.64,23.04,1.34,40.97-17.34,40.51-39-.09-.48-.38-1.03.43-1.18,9.84,4.67,15.91,12.33,17.92,23.05,1.2,6.42.56,12.78-2.61,18.49-2.17,3.91-2.53,7.62-1.21,11.74Z"/>
  <path class="uuid-05a3f6fc-e4ac-4736-9fb2-e9c572f8f586" d="m76.74,36.01c-.58.23-.23.81-.43,1.18-.44-1.16-.39-1.27.43-1.18Z"/>
  <path class="uuid-05a3f6fc-e4ac-4736-9fb2-e9c572f8f586" d="m35.67,40.58c-.28-3.44,1.09-6.15,4.57-7.79,2.12-1,2.97-3.25,2.37-5.4-.63-2.26-2.42-3.57-4.74-3.51-2.29.07-3.89,1.45-4.45,3.85-.05.23-.12.46-.16.69-.34,1.82-1.22,2.69-2.58,2.54-1.46-.16-2.27-1.37-2.13-3.16.36-4.58,3.79-8,8.68-8.68,4.04-.56,8.41,2.28,9.84,6.39,1.44,4.14-.18,9.04-4.07,11.12-2.06,1.1-2.77,2.43-2.65,4.65.15,2.82-.69,4.03-2.36,4-1.62-.04-2.32-1.27-2.33-4.09,0-.12,0-.24,0-.62Z"/>
  <path class="uuid-05a3f6fc-e4ac-4736-9fb2-e9c572f8f586" d="m38.12,54.73c-2.03.03-3.51-1.37-3.58-3.37-.07-2.05,1.45-3.7,3.45-3.75,1.91-.04,3.67,1.7,3.66,3.62-.01,1.89-1.61,3.47-3.53,3.5Z"/>
</svg>