<?xml version="1.0" encoding="UTF-8"?>
<svg id="uuid-71d2169d-e11c-456b-86bf-184fb49431e7" data-name="Layer 1" xmlns="http://www.w3.org/2000/svg" viewBox="0 0 100 100">
  <defs>
    <style>
      .uuid-02cf155c-ea35-4f10-9706-963606cab230 {
        fill: #364856;
        stroke-width: 0px;
      }
    </style>
  </defs>
  <path class="uuid-02cf155c-ea35-4f10-9706-963606cab230" d="m11.17,28.35c1.09-2.58,2.1-5.19,3.29-7.72,1.67-3.57,2.28-7.31,2.13-11.22-.03-.72-.17-1.09-.94-1.32-2.28-.68-3.47-2.45-3.18-4.52C12.76,1.44,14.5-.02,16.86-.03c9.57-.02,19.15-.02,28.72,0,2.32,0,4.01,1.5,4.32,3.69.27,1.95-.95,3.78-3.12,4.41-.87.25-.96.68-.99,1.44-.16,3.97.52,7.74,2.23,11.35,1.31,2.76,2.42,5.62,3.62,8.44-.43.89-.09,1.72.21,2.55.5,1.37.49,1.39-.95,1.39-6.03,0-12.07,0-18.1,0-6.19,0-12.38,0-18.57,0-2.86,0-3.29-.43-3.18-3.2.02-.56-.12-1.14.13-1.69Z"/>
  <path class="uuid-02cf155c-ea35-4f10-9706-963606cab230" d="m11.17,28.35c.31.99.48,1.95.28,3.03-.21,1.16,1.06,1.21,1.72,1.68.17.12.51.03.77.03,12.28,0,24.56,0,36.85,0,.35,0,.69-.03,1.1-.06-.46-1.28-2.12-2.42-.26-3.73.46,1.24.92,2.49,1.46,3.94,2.05-3.98,4-7.8,6.26-11.44,2.04-3.28,2.02-3.29,5.33-1.21,1.89,1.19,3.77,2.4,5.68,3.57,2.18,1.34,4.66.91,5.92-1,1.37-2.09.79-4.59-1.49-6.06-2.4-1.55-4.85-3.03-7.27-4.55-.45-.28-1.17-.48-.5-1.23,3.97-4.46,8.17-8.7,14-10.63,7.63-2.52,13.8,1.89,14.54,10.17.62,6.95-1.04,13.52-3.2,20.02-.87,2.6-.9,2.59-3.62,2.51-.99-.03-1.98-.04-2.97-.04-23.84,0-47.67,0-71.51,0h-4.8c.33-1.74.85-3.43,1.71-5.01Z"/>
  <path class="uuid-02cf155c-ea35-4f10-9706-963606cab230" d="m99.76,51.57c-1.31-6.11-6.26-9.97-12.77-9.99-12.29-.03-24.58,0-36.87,0-12.45,0-24.89-.04-37.34.02-8.34.04-14.03,6.83-12.55,14.98,1.32,7.26,3.03,14.46,4.15,21.75,1.86,12.11,12.41,22.1,26.72,21.71,12.65-.34,25.31-.07,37.96-.07,1.77,0,3.53-.08,5.29-.29,9.84-1.17,19.04-9.81,20.86-19.56,1.27-6.79,2.62-13.57,3.97-20.35.54-2.71,1.15-5.43.56-8.19Zm-66.53,27.76c-.05,2.31-2.1,4.05-4.22,3.98-2.26-.08-4.02-1.91-4.06-4.32-.04-2.76,0-5.52,0-8.28,0-2.65-.02-5.31,0-7.96.02-2.43,1.59-4.22,3.77-4.36,2.45-.16,4.43,1.36,4.5,3.93.15,5.67.13,11.35.01,17.02Zm16.69,3.98c-2.32-.01-4.07-1.86-4.1-4.4-.04-2.7,0-5.41,0-8.12,0-2.65-.02-5.31,0-7.96.03-2.7,1.69-4.47,4.13-4.47,2.38,0,4.1,1.74,4.12,4.34.04,5.41.04,10.82,0,16.23-.02,2.51-1.86,4.39-4.14,4.37Zm25.02-12.55c0,2.65.02,5.31,0,7.96-.02,2.62-1.77,4.54-4.13,4.58-2.32.05-4.19-1.86-4.21-4.5-.05-5.36-.05-10.72,0-16.08.02-2.65,1.82-4.4,4.28-4.36,2.34.04,4.02,1.85,4.05,4.43.03,2.65,0,5.31,0,7.96Z"/>
</svg>