<?xml version="1.0" encoding="UTF-8"?>
<svg id="uuid-55abe467-6488-46d0-a81a-48931c704534" data-name="Layer 1" xmlns="http://www.w3.org/2000/svg" viewBox="0 0 100 100">
  <defs>
    <style>
      .uuid-7b6d11da-3f77-453c-a1aa-27784635c8d4 {
        fill: #364856;
      }

      .uuid-7b6d11da-3f77-453c-a1aa-27784635c8d4, .uuid-a9d86a1e-2c21-423c-9627-1d7d6b681ac0 {
        stroke-width: 0px;
      }

      .uuid-a9d86a1e-2c21-423c-9627-1d7d6b681ac0 {
        fill: #374957;
      }
    </style>
  </defs>
  <path class="uuid-7b6d11da-3f77-453c-a1aa-27784635c8d4" d="m93.03,38.16c-1.35-.49-2.77-.59-4.29-.72.28-.66.49-1.19.72-1.71,2.46-5.57,4.54-11.26,5.62-17.27.75-4.17,1.12-8.36-.2-12.49-1.41-4.4-5.06-6.52-9.56-5.65-3.42.66-6.25,2.47-8.88,4.62-4.92,4.02-8.77,8.97-12.17,14.3-3.66,5.73-6.68,11.82-10.22,17.98-.33-2.2-.58-4.16-1.12-6.06-1.13-4.02-2.99-7.74-4.75-11.49-2.2-4.68-2.48-9.59-2.34-14.62.02-.69.28-.93.93-.88.41.03.83,0,1.25,0,1.05,0,1.65-.62,1.89-1.55.25-.97-.19-1.71-1.01-2.25-.56-.37-1.19-.31-1.81-.31-10.55,0-21.11,0-31.66,0-.46,0-.96-.03-1.39.12-.96.34-1.6,1.02-1.47,2.11.13,1.09.71,1.83,1.92,1.86.36.01.73.03,1.09,0,.77-.08,1.09.16,1.12,1.01.21,5.36-.41,10.52-2.79,15.46-2.52,5.22-5.04,10.5-5.37,16.46-.05.85-.69.8-1.18.96-5.11,1.65-7.99,6.37-7.15,11.63.83,5.18,1.57,10.37,2.36,15.55.87,5.64,1.47,11.35,2.7,16.91,2.35,10.62,11.62,17.73,22.65,17.74,14.45.01,28.91,0,43.36,0,1.51,0,3-.08,4.5-.27,9.28-1.19,17.61-9.05,19.09-18.26,1.71-10.66,3.32-21.34,4.92-32.02.73-4.88-2.15-9.53-6.78-11.21Zm-28.64-11.02c.7-1.33,1.56-2.57,2.27-3.9.41-.76.8-.73,1.46-.32,2.11,1.32,4.25,2.59,6.38,3.88,1.78,1.08,3.1,1.01,3.81-.2.72-1.22.2-2.27-1.69-3.41-2.09-1.25-4.18-2.51-6.28-3.74-.5-.29-.87-.5-.39-1.15,3.7-4.99,7.59-9.77,13.15-12.84.63-.35,1.31-.64,2-.86,3.32-1.01,5.34.15,6.07,3.55.87,4.07.15,8.07-.74,12.03-1.28,5.69-3.41,11.08-5.84,16.37-.27.59-.53.99-1.34.99-7.9-.04-15.8-.03-23.69-.04-.09,0-.17-.07-.45-.2,1.76-3.4,3.5-6.81,5.28-10.18Zm-49.19.83c1.69-4,3.76-7.85,4.86-12.09.87-3.36.91-6.78.82-10.2-.03-1.13.22-1.52,1.44-1.5,6.02.07,12.05.05,18.07.01.9,0,1.35.17,1.26,1.19-.63,7.34,1.55,14.01,4.73,20.48,1.65,3.35,2.99,6.83,3.36,10.61.07.77.04,1.08-.87,1.08-11.84-.03-23.68-.02-35.52-.02-.2,0-.4-.06-.61-.1.16-3.36,1.18-6.43,2.46-9.46Zm80.37,21.3c-1.54,10.43-3.08,20.85-4.75,31.26-1.26,7.85-8.3,14.24-16.2,15.05-1.71.17-3.42.24-5.13.24-13.83,0-27.66.05-41.49-.03-8.09-.04-13.94-3.87-17.55-11.07-1.54-3.07-1.69-6.51-2.2-9.84-1.34-8.67-2.62-17.35-3.92-26.03-.53-3.5,1.9-6.74,5.42-7,2.64-.2,5.3-.21,7.95-.22,10.76-.02,21.52,0,32.28,0,12.94,0,25.89,0,38.83,0,4.61,0,7.42,3.12,6.75,7.63Z"/>
  <path class="uuid-a9d86a1e-2c21-423c-9627-1d7d6b681ac0" d="m47.88,66.52c0-4.57,0-9.14,0-13.71,0-1.74.74-2.74,2.02-2.79,1.34-.06,2.19.99,2.19,2.8,0,9.25,0,18.49,0,27.74,0,1.1-.22,2.08-1.37,2.55-1.5.62-2.83-.45-2.84-2.41-.03-4.73,0-9.45-.01-14.18Z"/>
  <path class="uuid-7b6d11da-3f77-453c-a1aa-27784635c8d4" d="m70.81,66.52c0-4.62,0-9.24,0-13.87,0-1.66.71-2.59,1.97-2.64,1.29-.05,2.15.98,2.15,2.65,0,9.3,0,18.59,0,27.89,0,1.71-.8,2.74-2.09,2.74-1.29,0-2.03-.98-2.04-2.75,0-4.67,0-9.35,0-14.02Z"/>
  <path class="uuid-7b6d11da-3f77-453c-a1aa-27784635c8d4" d="m25.03,66.4c0-4.57,0-9.14,0-13.71,0-1.69.82-2.7,2.12-2.67,1.25.03,2,.98,2,2.62,0,9.35,0,18.69,0,28.04,0,1.62-.79,2.6-2.03,2.62-1.28.02-2.09-1.01-2.09-2.72,0-4.73,0-9.45,0-14.18Z"/>
</svg>