<?xml version="1.0" encoding="UTF-8"?>
<svg id="uuid-2a7f5454-2a59-468e-8ff8-2486b7023e26" data-name="Layer 1" xmlns="http://www.w3.org/2000/svg" viewBox="0 0 100 100">
  <defs>
    <style>
      .uuid-e27bff50-8150-41d6-af09-6d1a4cd71651 {
        fill: #364856;
        stroke-width: 0px;
      }
    </style>
  </defs>
  <path class="uuid-e27bff50-8150-41d6-af09-6d1a4cd71651" d="m32.33,18.76c.34.71.82,1.06.94,1.65.18.93-.13,1.67-.88,2.15-.88.55-1.82.5-2.59-.23-1.39-1.33-2.75-2.69-4.09-4.08-.94-.97-.98-2.06-.05-3.05,1.36-1.43,2.75-2.84,4.19-4.19.88-.81,1.94-.82,2.8.02,1.12,1.1.76,2.24-.2,3.31.6.52,1.31.32,1.95.32,14.78,0,29.57-.05,44.35,0,9.18.03,15.86,4.3,19.54,12.66,5.78,13.12-3.61,28.13-17.91,28.92-.47.03-.95.07-1.4,0-1.19-.18-1.87-.88-1.84-2.12.03-1.16.66-1.84,1.82-1.95,2.17-.2,4.34-.42,6.39-1.26,6.83-2.81,10.78-9.23,10.44-16.05-.4-7.92-5.67-14.11-13.01-15.71-1.06-.23-2.17-.35-3.25-.35-15.36-.03-30.71-.02-46.07-.03-.31,0-.62,0-1.13,0Z"/>
  <path class="uuid-e27bff50-8150-41d6-af09-6d1a4cd71651" d="m45.16,91.62c-8.38,0-16.76.04-25.14-.01-9.6-.06-16.98-5.85-19.43-15.13-2.69-10.16,3.91-21.19,14.11-23.63,1.83-.44,3.67-.7,5.55-.71,1.73,0,2.58.62,2.61,1.97.03,1.35-.8,2.1-2.47,2.15-2.89.09-5.66.66-8.22,2.07-6.11,3.36-9.25,10.45-7.59,17.09,1.78,7.11,7.78,12.03,14.96,12.06,13.95.06,27.9.02,41.85.02,3.64,0,7.29,0,10.93,0,1.72,0,2.7.82,2.66,2.15-.04,1.28-.93,1.97-2.65,1.97-9.06,0-18.12,0-27.17,0Z"/>
  <path class="uuid-e27bff50-8150-41d6-af09-6d1a4cd71651" d="m72.87,50.14c.08-4.16.26-8.32-.06-12.48-.07-.87-.22-1.6-1.13-2.04-6.83-3.39-13.63-6.81-20.46-10.19-.62-.31-1.3-.61-2.08-.21-6.84,3.48-13.82,6.67-20.57,10.32-1.1.59-1.49,1.4-1.48,2.64.02,4.84-.05,9.68-.08,14.52-.02,3.23-.1,6.45.16,9.67.07.86.21,1.58,1.13,2.03,6.79,3.35,13.56,6.74,20.33,10.13,1,.5,1.91.57,2.93-.04,1.2-.71,2.5-1.27,3.75-1.89,5.19-2.6,10.37-5.21,15.57-7.79,1.38-.68,2.1-1.56,2.04-3.26-.14-3.79-.04-7.6-.04-11.39Zm-23.33-20.48c.29-.15.53-.2.86-.03,5.16,2.59,10.33,5.17,15.75,7.88-2.09,1.03-3.93,1.93-5.76,2.86-.51.26-.87.02-1.28-.21-4.77-2.61-9.54-5.21-14.63-7.99,1.86-.92,3.46-1.71,5.06-2.51Zm-1.67,39.85c-4.06-2.02-7.94-3.94-11.82-5.88-1.57-.79-3.65-1.25-4.54-2.53-.93-1.35-.25-3.51-.26-5.32-.03-4.88-.01-9.77-.01-14.88,5.43,2.7,10.66,5.31,15.89,7.91.44.22.75.46.75,1.04-.02,6.48-.01,12.96-.01,19.66Zm2.35-24.02c-.29.15-.5-.04-.72-.15-5.13-2.56-10.26-5.12-15.53-7.76.23-.21.27-.25.31-.27,1.85-.92,3.66-2.43,5.58-2.59,1.88-.16,3.57,1.64,5.35,2.58,3.34,1.75,6.63,3.61,10.22,5.57-1.88.95-3.55,1.78-5.21,2.63Zm18.04,16c-5.32,2.65-10.64,5.29-16.15,8.03v-9.06c0-3.28.06-6.56-.03-9.83-.03-1.12.36-1.67,1.34-2.1,1.6-.7,3.14-1.53,4.94-2.42,0,1.39-.03,2.56,0,3.72.05,1.4.87,2.29,2.04,2.28,1.14,0,2.03-.93,2.06-2.29.04-1.61.05-3.23,0-4.84-.03-.74.25-1.12.89-1.43,1.73-.81,3.43-1.68,5.37-2.65,0,6.65,0,13.09,0,19.53,0,.44-.04.82-.48,1.04Z"/>
  <path class="uuid-e27bff50-8150-41d6-af09-6d1a4cd71651" d="m18.45,23.42c-.84-.71-1.84-1.16-2.86-1.69,1.54-2.37,3.08-4.7,4.22-7.27,1.06-2.38,1.32-4.78.49-7.27C18.39,1.47,12.16-1.45,6.59.75,1.58,2.72-1.77,8.81,1.09,14.66c1.21,2.46,2.67,4.76,4.11,7.04-.92.54-1.82.97-2.59,1.56-3.32,2.55-3.47,6.54-.4,9.4,4.03,3.74,12.64,3.68,16.57-.12,2.84-2.74,2.69-6.59-.32-9.12ZM4.75,12.63c-1.16-2.65-.37-5.47,1.93-7.2,2.26-1.7,5.4-1.65,7.65.13,2.21,1.75,2.85,4.44,1.7,7.12-1.38,3.22-3.44,6.01-5.6,8.99-2.21-2.94-4.26-5.8-5.68-9.05Zm10.56,17.39c-1.49.97-3.18,1.18-4.89,1.25-1.79-.07-3.53-.29-5.04-1.34-1.67-1.17-1.63-2.64.11-3.67,1.19-.71,2.32-1.43,3.55.21.8,1.07,2.04.84,3.08-.28.51-.55.88-1.03,1.79-.59,1.13.54,2.41.83,2.66,2.3.17,1.01-.49,1.63-1.27,2.13Z"/>
  <path class="uuid-e27bff50-8150-41d6-af09-6d1a4cd71651" d="m89.62,79.14c-5.6-.1-10.43,4.68-10.5,10.38-.06,5.67,4.67,10.44,10.38,10.46,5.75.03,10.46-4.63,10.47-10.35.02-5.74-4.58-10.39-10.36-10.5Zm-.03,16.72c-3.41.04-6.21-2.78-6.23-6.25-.01-3.52,2.68-6.23,6.19-6.24,3.47,0,6.28,2.76,6.29,6.18.01,3.37-2.86,6.26-6.25,6.3Z"/>
  <path class="uuid-e27bff50-8150-41d6-af09-6d1a4cd71651" d="m10.35,12.51c-1.15-.04-1.99-.95-1.96-2.14.03-1.19.9-2,2.1-1.97,1.16.04,2.04.96,2,2.1-.04,1.12-1.03,2.04-2.14,2Z"/>
</svg>