<?xml version="1.0" encoding="UTF-8"?>
<svg id="uuid-924ff83f-f9c8-469f-8b88-971544e9563d" data-name="Layer 1" xmlns="http://www.w3.org/2000/svg" viewBox="0 0 100 100">
  <defs>
    <style>
      .uuid-804e50d3-273f-42e9-a568-e4553af37596 {
        fill: #364856;
        stroke-width: 0px;
      }
    </style>
  </defs>
  <path class="uuid-804e50d3-273f-42e9-a568-e4553af37596" d="m29.55,17.42c-.1.54.31.65.46.91.6,1.03.53,2.02-.34,2.81-.87.79-1.97.84-2.82.06-1.6-1.46-3.13-3.02-4.61-4.61-.8-.86-.77-1.94.03-2.79,1.48-1.59,3-3.15,4.61-4.6.92-.83,2.02-.7,2.91.21.89.9.79,1.87-.33,3.39.68.49,1.46.31,2.18.31,15.38,0,30.77.08,46.15-.05,9.9-.08,17.57,6.12,20.62,13.51,5.66,13.73-4.18,29.3-19.01,29.96-.38.02-.76.04-1.14,0-1.33-.12-2.15-.86-2.13-2.2.02-1.25.76-1.97,2.05-2.08,2.16-.18,4.3-.41,6.36-1.23,7.16-2.84,11.63-9.82,11.1-17.42-.53-7.62-6.04-14.09-13.53-15.8-1.1-.25-2.26-.38-3.39-.38-16.09-.03-32.18-.02-48.27-.02-.27,0-.54.02-.88.04Z"/>
  <path class="uuid-804e50d3-273f-42e9-a568-e4553af37596" d="m47.04,93.47c-8.75,0-17.51-.06-26.26.02-10.35.09-18.9-7.49-20.49-17-2.21-13.15,7.52-24.41,21.19-24.25,1.46.02,2.38.86,2.38,2.11,0,1.23-.91,2.14-2.35,2.17-2.8.07-5.5.55-8.04,1.75-6.78,3.19-10.44,10.74-8.82,18.17,1.58,7.23,8.21,12.67,15.75,12.7,17.4.05,34.8.02,52.2.02,1.03,0,2.07-.02,3.1,0,1.55.03,2.56.89,2.58,2.13.02,1.27-.95,2.16-2.52,2.17-4.95.03-9.9.01-14.84.01-4.62,0-9.24,0-13.87,0Z"/>
  <path class="uuid-804e50d3-273f-42e9-a568-e4553af37596" d="m47.58,72.73c-3.34-1.67-6.67-3.34-10-5.01-2.81-1.41-5.62-2.82-8.43-4.21-.55-.27-.99-.49-.98-1.27.03-6.72.02-13.44.02-20.43,2.45,1.22,4.71,2.36,6.97,3.48,3.83,1.91,7.66,3.81,11.5,5.72.64.32,1.15.6,1.14,1.53-.05,6.58-.03,13.15-.04,19.73,0,.1-.07.2-.17.46Z"/>
  <path class="uuid-804e50d3-273f-42e9-a568-e4553af37596" d="m52.19,72.66v-6.07c0-4.56.02-9.13-.02-13.69,0-.92.19-1.48,1.1-1.88,1.77-.78,3.49-1.69,5.37-2.61.04.74.06,1.31.12,1.88.11,1.17.89,1.76,1.93,1.86,1.07.1,1.87-.47,2.22-1.53.1-.3.17-.66.1-.96-.66-2.89.85-4.27,3.34-5.2,1.8-.68,3.48-1.67,5.41-2.62,0,5.22,0,10.2,0,15.18,0,1.63-.04,3.26.02,4.89.03.8-.2,1.25-.96,1.63-5.97,2.95-11.91,5.95-17.86,8.93-.18.09-.41.11-.77.2Z"/>
  <path class="uuid-804e50d3-273f-42e9-a568-e4553af37596" d="m99.97,91.28c.03,4.87-3.74,8.68-8.61,8.7-4.84.02-8.72-3.8-8.74-8.61-.02-4.79,3.86-8.72,8.64-8.74,4.82-.03,8.68,3.81,8.71,8.64Z"/>
  <path class="uuid-804e50d3-273f-42e9-a568-e4553af37596" d="m58.14,43.76c-2.72,1.36-5.14,2.55-7.54,3.77-.51.26-.92.15-1.38-.08-6.87-3.45-13.74-6.9-20.61-10.34-.03-.02-.03-.09-.1-.28,2.66-1.34,5.35-2.68,8.04-4.03.44-.22.82-.08,1.22.13,6.69,3.56,13.38,7.12,20.36,10.83Z"/>
  <path class="uuid-804e50d3-273f-42e9-a568-e4553af37596" d="m71.73,36.96c-2.93,1.46-5.58,2.78-8.22,4.11-.43.22-.8.2-1.23-.03-6.72-3.59-13.45-7.16-20.44-10.88,2.72-1.37,5.22-2.62,7.72-3.87.46-.23.84,0,1.23.2,6.87,3.44,13.75,6.87,20.94,10.47Z"/>
  <path class="uuid-804e50d3-273f-42e9-a568-e4553af37596" d="m8.66,32.65c-2.63-.18-5.19-.55-7.22-2.46-2.1-1.98-1.91-4.72.4-6.41.5-.37.81-.53,1.25.13.66.99,1.43,1.91,2.23,2.79,1.88,2.07,4.89,2.03,6.72-.09.75-.86,1.45-1.76,2.1-2.7.42-.6.73-.57,1.29-.17,2.3,1.67,2.56,4.25.55,6.28-2.01,2.04-4.64,2.41-7.32,2.61Z"/>
  <path class="uuid-804e50d3-273f-42e9-a568-e4553af37596" d="m13.82,1.7c-2.96-2.24-7.34-2.24-10.33,0C.34,4.05-.83,7.83.58,11.36c1.85,4.65,4.91,8.52,8.07,12.58,3.17-4.07,6.28-7.99,8.1-12.71,1.33-3.44.14-7.21-2.93-9.53Zm-5.21,9.15c-1.2-.01-2.1-.96-2.1-2.19,0-1.25.89-2.12,2.15-2.1,1.22.02,2.16.96,2.13,2.16-.02,1.17-1.03,2.15-2.19,2.13Z"/>
</svg>