<?xml version="1.0" encoding="UTF-8"?>
<svg id="uuid-835eb4d8-82f3-4cfc-b650-6281d942cf97" data-name="Layer 1" xmlns="http://www.w3.org/2000/svg" viewBox="0 0 100 100">
  <defs>
    <style>
      .uuid-352e3e17-4ee7-49cf-8839-bd42ddc14f90 {
        fill: #364856;
        stroke-width: 0px;
      }
    </style>
  </defs>
  <path class="uuid-352e3e17-4ee7-49cf-8839-bd42ddc14f90" d="m11.57,70.02c-4.79-1.64-7.74-4.87-8.51-9.94-.93-6.1,4.34-12.47,10.51-12.96,7.06-.56,11.65,4.27,12.73,9.1,1.45,6.52-2.92,12.65-8.58,13.87-.23.05-.44.21-.96.47,3.5-.22,6.7.33,9.86-.51,5.06-1.33,8.6-5.81,8.7-11.03.03-1.66-.12-3.31.25-4.97.91-4.08,4.21-6.87,8.41-6.96,3.13-.07,3.18-.06,3.12,3.01-.08,4.41.27,8.83-.49,13.23-1.44,8.4-8.95,16.35-17.31,18.15-1.47.32-2.95.69-4.46.61-1.02-.05-1.17.34-1.17,1.25.04,5.1,0,10.2.04,15.3,0,.97-.19,1.33-1.26,1.32-7.07-.05-14.15-.06-21.22,0-1.12,0-1.22-.42-1.21-1.34.04-5.41,0-10.82.02-16.23.02-6.16,4.44-11.09,10.59-11.86.73-.24,1.49-.16,2.25-.15.2-.05-.02-.36.03-.15.02.09,0,.12-.08.14-.5.12-.9-.08-1.27-.37Z"/>
  <path class="uuid-352e3e17-4ee7-49cf-8839-bd42ddc14f90" d="m89.34,70.55c6.15.78,10.56,5.7,10.59,11.86.02,5.41-.03,10.82.03,16.23.01,1.12-.31,1.35-1.38,1.34-6.97-.05-13.94-.06-20.9,0-1.2.01-1.45-.33-1.43-1.47.06-5.05,0-10.09.05-15.14,0-.88-.12-1.22-1.15-1.27-12.33-.58-21.98-10.57-22.26-23.06-.08-3.59-.02-7.18-.01-10.77,0-.46-.24-1.01.6-1.18,4.44-.92,9.06,1.55,10.6,5.75.57,1.54.65,3.14.58,4.76-.08,2.05.08,4.06.99,5.93,2.18,4.49,5.82,6.76,10.75,6.98,2.17.09,4.35.02,6.71.02-1.28-.53-2.45-.91-3.52-1.48-5.3-2.8-7.56-9.07-5.33-14.67,2.21-5.55,8.31-8.49,14.19-6.83,5.59,1.58,9.18,7.34,8.14,13.17-.84,4.74-3.7,7.74-8.18,9.3-.41.32-.84.51-1.41.33.8.16,1.6-.1,2.34.2Z"/>
  <path class="uuid-352e3e17-4ee7-49cf-8839-bd42ddc14f90" d="m70.53,14.33c-.11,4.99-1.81,9.2-4.61,13.01-4.18,5.69-9.65,9.98-15.28,14.1-.42.31-.7.42-1.2.06-6.01-4.4-11.9-8.95-16.1-15.23-3.93-5.88-5.17-12.18-2.34-18.89C34.17-.17,42.35-2.26,48.86,2.72c.69.53,1.13.89,2.07.17,7-5.37,15.25-2.99,18.4,5.24.79,2.05,1.08,4.21,1.19,6.19Z"/>
  <path class="uuid-352e3e17-4ee7-49cf-8839-bd42ddc14f90" d="m11.57,70.02c.58-.13,1.01.29,1.51.53h-2.44c.31-.18.62-.35.93-.53Z"/>
  <path class="uuid-352e3e17-4ee7-49cf-8839-bd42ddc14f90" d="m89.34,70.55h-2.65c.65-.35,1.14-.57,1.72-.53.31.18.62.35.93.53Z"/>
</svg>