<?xml version="1.0" encoding="UTF-8"?>
<svg id="uuid-98c94768-e64f-4940-8a3f-49593adc884a" data-name="Layer 1" xmlns="http://www.w3.org/2000/svg" viewBox="0 0 100 100">
  <defs>
    <style>
      .uuid-ed1f8123-9372-409e-a577-b9ee5f66e6ae {
        fill: #364856;
        stroke-width: 0px;
      }
    </style>
  </defs>
  <path class="uuid-ed1f8123-9372-409e-a577-b9ee5f66e6ae" d="m99.98,85.07c-.04-4.03-1.55-7.46-4.41-10.31-2.4-2.4-5.37-3.65-8.84-4.29,6.86-1.92,10.53-6.55,10.11-12.54-.38-5.37-4.7-10.08-9.86-10.76-5.92-.77-11.11,2.45-12.97,8.11-1.1,3.35-.63,6.55,1.16,9.57,1.78,2.99,4.55,4.63,7.81,5.6-3.13.08-6.2.12-9.27.07-5.24-.09-8.87-3.7-9.02-8.94-.04-1.25-.22-2.49-.56-3.69-2.05-7.28-8.81-11.71-16.31-10.71-6.85.91-12.25,7.08-12.48,14.26-.17,5.24-3.87,8.96-9.12,9.07-3.16.07-6.32.01-9.55.01,7.62-3.3,10.88-8.07,9.54-14-1.34-5.94-6.48-9.83-12.52-9.43-5.31.35-9.83,4.66-10.67,10.46-.82,5.68,2.84,10.56,9.88,12.92-.82.2-1.43.35-2.03.5-5.38,1.36-9.86,6.15-10.56,11.67-.69,5.48-.13,11.02-.3,16.53-.03.96.57.78,1.11.78,9.06,0,18.11-.01,27.17.02.92,0,1.11-.3,1.1-1.15-.04-3.33-.01-6.66-.02-9.99,0-.62,0-.98.84-1.11,8.35-1.29,14.71-5.62,19.13-12.81.19-.31.23-.82.73-.87.06.05.11.08.13.12,4.39,7.63,10.84,12.29,19.6,13.58.92.14.73.7.73,1.23.01,3.23.04,6.45-.01,9.68-.01.94.13,1.33,1.23,1.33,9-.05,18.01-.04,27.01,0,.91,0,1.25-.14,1.23-1.16-.06-4.58,0-9.16-.04-13.74ZM8.8,58.86c-.07-3.17,2.73-6.01,5.91-5.99,3.13.02,5.86,2.74,5.88,5.88.02,3.12-2.7,5.86-5.84,5.91-3.11.04-5.87-2.65-5.94-5.79Zm37.49,8.37c-2.69,8.99-10.46,14.85-19.79,14.92q-3.03.02-3.03,3.07c0,2.6-.03,5.2.02,7.8.02.83-.23,1.04-1.04,1.03-5.15-.04-10.3-.05-15.45,0-.99,0-1.06-.39-1.05-1.19.04-2.5,0-4.99.02-7.49.02-5.28,3.69-9.01,9-9.09,3.75-.06,7.5-.12,11.24.01,7.15.25,14.93-5.54,15.08-14.81.06-3.74,2.16-6.64,5.88-8.04-.21,4.7.46,9.29-.88,13.77Zm33.07-8.56c.02-3.22,2.73-5.88,5.89-5.8,3.22.08,5.72,2.71,5.7,5.99-.02,3.23-2.71,5.86-5.89,5.79-3.24-.07-5.72-2.68-5.69-5.98Zm14.74,27.28c-.19,2.27-.07,4.58-.01,6.86.02.88-.09,1.27-1.15,1.25-5.15-.06-10.3-.06-15.45,0-.99,0-1.21-.29-1.2-1.24.06-3.12-.03-6.24.05-9.36.03-1.14-.32-1.39-1.39-1.33-5.05.3-9.69-.94-13.74-4.01-5.35-4.05-8.05-9.52-8.3-16.19-.1-2.75-.02-5.51-.02-8.4,3.57,1.16,5.73,4.21,5.86,8.05.19,5.61,2.6,9.96,7.49,12.83,2.04,1.2,4.26,1.86,6.66,1.86,3.85,0,7.7.07,11.55,0,5.62-.11,10.08,4.36,9.64,9.68Z"/>
  <path class="uuid-ed1f8123-9372-409e-a577-b9ee5f66e6ae" d="m70.06,10.31c-2.02-9.63-11.36-13.33-19.1-7.43-.83.64-1.28.49-1.95-.07C46.82.99,44.27.09,41.93.02c-5.43-.06-9.6,3.18-11.39,8.46-2.26,6.61-.66,12.58,3.13,18.12,4.17,6.11,9.89,10.6,15.79,14.9.49.36.78.25,1.2-.06,5.14-3.74,10.12-7.65,14.1-12.67,4.3-5.41,6.79-11.33,5.3-18.47Zm-9.02,13.73c-2.85,3.96-6.53,7.1-10.35,10.08-.4.31-.71.49-1.21.1-5.17-4.14-10.28-8.32-12.99-14.63-1.46-3.39-1.62-6.85.03-10.24,1.85-3.81,5.57-4.6,8.9-1.97.99.78,1.78,1.73,2.37,2.85.68,1.31,1.39,2.61,2.21,4.13.88-1.61,1.6-3.02,2.4-4.39,1.23-2.11,2.93-3.69,5.43-4,3.34-.42,5.78,1.91,6.56,5.85.92,4.66-.74,8.57-3.35,12.21Z"/>
</svg>