<?xml version="1.0" encoding="UTF-8"?>
<svg id="uuid-cf41b958-c2c1-4e81-8b01-abf65841ae75" data-name="Layer 1" xmlns="http://www.w3.org/2000/svg" viewBox="0 0 100.01 99.95">
  <defs>
    <style>
      .uuid-745944dc-cb63-4e5c-b6c1-755e7d606e03 {
        fill: #364856;
      }

      .uuid-745944dc-cb63-4e5c-b6c1-755e7d606e03, .uuid-7fcee7de-ee06-4ce4-8cd1-4ae349a7d00c {
        stroke-width: 0px;
      }

      .uuid-7fcee7de-ee06-4ce4-8cd1-4ae349a7d00c {
        fill: #374856;
      }
    </style>
  </defs>
  <path class="uuid-7fcee7de-ee06-4ce4-8cd1-4ae349a7d00c" d="m70.9,58.35c-5.31,0-10.61-.02-15.92,0-1.08,0-1.68-.16-1.41-1.49.79-3.97,1.47-7.96,2.22-11.95.63-3.38-1.28-6.41-4.57-7.25-2.89-.74-5.34.55-7.07,3.78-2.74,5.13-5.48,10.26-8.15,15.42-.54,1.05-1.16,1.58-2.39,1.5-1.71-.1-3.43-.06-5.15-.02-5.91.13-11.55,5.31-11.7,11.09-.16,6.45-.14,12.91.09,19.35.22,6.08,5.79,11.13,11.9,11.14,5.98.01,11.96,0,17.94,0,5.57,0,11.13-.03,16.7.02,1.78.01,3.52-.13,5.22-.68,6.17-2,10.18-6.08,11.65-12.43,1.05-4.55,1.91-9.15,2.8-13.73,1.47-7.56-4.47-14.75-12.16-14.76Zm-37.53,20.9c0,4.58,0,9.15,0,13.73,0,2.75,0,2.69-2.7,2.75-2.11.05-4.11-.06-5.97-1.27-2.2-1.44-3.6-3.38-3.7-5.97-.24-6.29-.26-12.58,0-18.86.14-3.29,3.19-6.35,6.44-6.92,1.6-.28,3.22-.14,4.82-.19,1.23-.04,1.09.84,1.09,1.61,0,5.04,0,10.09,0,15.13Zm45.52-6.46c-1.02,4.72-1.72,9.51-2.96,14.18-1.19,4.52-5.87,8.55-10.53,8.63-8.89.15-17.79.1-26.69.15-1.05,0-1.29-.47-1.28-1.43.03-5.26.02-10.51.02-15.77,0-4.42.02-8.85,0-13.27,0-1.76.15-3.3,1.27-4.92,1.87-2.72,3.2-5.81,4.76-8.75,1.51-2.84,3.02-5.69,4.52-8.53.49-.92,1.04-1.75,2.28-1.37,1.24.38,1.47,1.32,1.27,2.48-.69,4.05-1.3,8.11-2.07,12.14-.73,3.87.89,6.1,4.83,6.16,5.41.08,10.82,0,16.23.04,4.13.03,6.88,2.07,8.19,5.93.48,1.42.47,2.92.16,4.32Z"/>
  <path class="uuid-745944dc-cb63-4e5c-b6c1-755e7d606e03" d="m66.36,11.92c-.69-1.91-2.33-3.04-4.6-3.1-1.4-.04-2.81-.05-4.21,0-.91.03-1.4-.25-1.69-1.18-.52-1.68-1.1-3.36-1.83-4.96-1.18-2.58-4.03-3.41-6.41-1.98-1.83,1.11-2.13,3.12-2.81,4.88-1.5,3.88-.3,3.13-4.68,3.23-.48,0-1.2-.02-1.93,0-2.25.07-3.83,1.1-4.53,2.94-.73,1.91-.19,3.74,1.58,5.28,1.14.99,2.28,1.97,3.45,2.92.64.52.89,1.02.54,1.85-.5,1.19-.88,2.43-1.27,3.67-.74,2.36-.26,4.32,1.31,5.51,1.74,1.31,3.65,1.29,5.78-.08,1.14-.73,2.3-1.43,3.37-2.25,1.13-.86,2.11-.78,3.22.02,1.26.91,2.57,1.76,3.91,2.55,1.54.89,3.17.97,4.72.01,1.73-1.07,2.38-2.69,2.06-4.68-.22-1.39-.72-2.72-1.29-3.99-.66-1.45-.52-2.49.94-3.36.97-.58,1.8-1.4,2.67-2.14,1.66-1.42,2.31-3.43,1.69-5.15Zm-4.94,2.42c-1.46,1.24-2.92,2.49-4.41,3.7-1.09.87-1.32,1.87-.81,3.17.65,1.69,1.19,3.42,1.77,5.14.1.31.46.65.01.96-.37.26-.69.03-1-.17-1.69-1.11-3.4-2.19-5.07-3.33-1.26-.86-2.45-.96-3.73-.03-1.55,1.13-3.16,2.19-4.76,3.25-.4.27-.86.8-1.38.41-.49-.37-.02-.87.11-1.28.51-1.63.98-3.28,1.62-4.86.55-1.38.24-2.39-.86-3.3-1.53-1.25-3.02-2.53-4.53-3.81-.26-.22-.66-.44-.46-.87.16-.34.55-.21.84-.21,1.04-.02,2.08,0,2.71,0,5.54.07,5.13.09,6.6-4.2.39-1.13.77-2.25,1.19-3.37.16-.42.23-1.05.79-1.02.44.02.5.6.64.97.7,1.9,1.42,3.79,2.03,5.71.43,1.37,1.39,1.88,2.69,1.9,1.87.03,3.74,0,5.61.02.37,0,.93-.24,1.08.29.13.45-.37.69-.68.95Z"/>
  <path class="uuid-745944dc-cb63-4e5c-b6c1-755e7d606e03" d="m94.75,31.72c1.38-1.09,2.76-2.22,3.96-3.5,1.22-1.29,1.57-2.88.81-4.62-.74-1.69-2.01-2.62-3.84-2.71-1.61-.07-3.22-.11-4.83-.05-.96.04-1.41-.33-1.69-1.2-.5-1.53-1.05-3.04-1.64-4.53-.82-2.08-2.44-3.28-4.35-3.15-2.07.13-3.46,1.25-4.15,3.22-.52,1.47-1.1,2.91-1.58,4.39-.3.92-.77,1.33-1.8,1.28-1.55-.08-3.12-.08-4.68.04-3.73.3-5.44,3.91-3.4,7.05,1.05,1.62,2.7,2.57,4.16,3.71.94.73,1.16,1.37.73,2.49-.66,1.74-1.33,3.49-1.55,4.98-.07,4.05,3.46,6.01,6.85,4.12,1.49-.83,2.89-1.84,4.3-2.82.86-.6,1.6-.72,2.52-.03,1.29.96,2.66,1.81,4.03,2.66,2.11,1.3,3.85,1.27,5.49-.04,1.55-1.23,2.05-3.17,1.34-5.37-.4-1.23-.8-2.47-1.3-3.67-.4-.97-.22-1.6.62-2.26Zm-4.2-1.93c-1.28.95-1.61,2.04-1.04,3.52.64,1.64,1.18,3.32,1.77,4.98.16.45.38.96-.1,1.27-.42.27-.74-.22-1.07-.43-1.67-1.05-3.33-2.12-4.96-3.22-1.27-.86-2.47-.86-3.75.01-1.95,1.33-3.95,2.59-6.14,4.03-.05-2.14.9-3.68,1.39-5.33,1-3.37,1.07-3.35-1.55-5.51-1.04-.86-2.12-1.67-3.13-2.56-.35-.31-1.03-.54-.75-1.2.23-.54.81-.35,1.25-.36,1.61-.02,3.22,0,4.83-.01,2.31,0,2.7-.3,3.49-2.5.57-1.61,1.14-3.22,1.75-4.82.13-.35.12-.92.68-.93.63-.01.63.58.78,1,.66,1.8,1.33,3.6,1.94,5.42.42,1.26,1.26,1.84,2.56,1.83,1.92,0,3.85,0,5.77.01.41,0,.9-.08,1.09.4.2.52-.29.73-.59.97-1.4,1.16-2.77,2.35-4.23,3.43Z"/>
  <path class="uuid-745944dc-cb63-4e5c-b6c1-755e7d606e03" d="m27.96,31.86c1.37-1.11,2.75-2.22,4-3.46,1.33-1.32,1.63-2.99.96-4.75-.65-1.71-1.95-2.66-3.79-2.74-1.56-.07-3.12-.14-4.68-.05-1.17.07-1.65-.43-2-1.46-.6-1.76-1.05-3.6-1.98-5.23-.85-1.47-2.2-2.26-3.87-2.2-1.7.06-3.13.79-3.84,2.47-.47,1.1-.87,2.22-1.31,3.33-1.43,3.63-.35,2.98-4.43,3.14-.99,0-1.98-.09-2.96.02-3.25.36-4.9,3.54-3.44,6.45.63,1.26,1.68,2.08,2.76,2.9q2.97,2.28,1.8,5.73c-.17.49-.31.99-.48,1.48-.78,2.27-.35,4.29,1.18,5.56,1.54,1.28,3.52,1.3,5.65-.01,1.28-.79,2.6-1.55,3.75-2.51,1.14-.94,2-.64,3.03.1,1.35.97,2.75,1.87,4.19,2.69,1.67.95,3.34,1.03,4.92-.29,1.62-1.36,2.08-3.06,1.5-5.04-.43-1.44-.92-2.87-1.48-4.27-.33-.82-.15-1.34.51-1.87Zm-4.25-1.9c-1.1.85-1.4,1.83-.89,3.14.68,1.74,1.27,3.51,1.9,5.27.14.4.32.86-.06,1.16-.35.28-.67-.11-.96-.3-1.75-1.11-3.5-2.22-5.23-3.37-1.23-.81-2.39-.8-3.61.03-1.96,1.32-3.95,2.59-6.24,4.08.13-2.27.98-3.95,1.54-5.69.9-2.83.88-3.11-1.32-4.95-1.23-1.03-2.49-2.03-3.73-3.07-.25-.21-.71-.34-.55-.82.17-.52.64-.46,1.04-.46,1.82,0,3.64-.06,5.46,0,1.52.06,2.45-.57,2.94-2,.64-1.86,1.33-3.71,2.02-5.55.12-.31.15-.79.64-.75.43.03.55.44.68.78.64,1.75,1.34,3.49,1.87,5.27.5,1.69,1.55,2.31,3.23,2.25,1.76-.06,3.53-.01,5.3,0,.35,0,.77-.05.96.36.24.52-.19.74-.51,1-1.49,1.21-2.97,2.44-4.49,3.61Z"/>
</svg>