<?xml version="1.0" encoding="UTF-8"?>
<svg id="uuid-58a75fbc-a4e6-480f-87c6-67bba6b2e516" data-name="Layer 1" xmlns="http://www.w3.org/2000/svg" viewBox="0 0 100 100">
  <defs>
    <style>
      .uuid-f23ee762-e7ec-4634-b61d-1660674d42c7 {
        fill: #364856;
        stroke-width: 0px;
      }
    </style>
  </defs>
  <path class="uuid-f23ee762-e7ec-4634-b61d-1660674d42c7" d="m29.17,84.85c0,4.57-.02,9.15.02,13.72,0,.98-.16,1.34-1.3,1.19-6.39-.85-10.99-5.78-11.09-12.21-.1-5.87-.09-11.75-.02-17.62.07-6.04,5.68-11.51,11.83-11.65,1.71-.04,3.43-.07,5.14.02,1.16.06,1.75-.41,2.28-1.42,2.8-5.38,5.74-10.69,8.52-16.09,1.74-3.39,4.77-3.68,7.54-2.83,2.43.75,4.33,3.57,3.73,6.77-.75,3.98-1.34,7.98-2.17,11.94-.29,1.38.14,1.62,1.33,1.62,5.14-.03,10.29-.05,15.43,0,6.17.05,10.55,3.32,12.36,9.21.61,1.98.54,4.06.19,6.03-.87,4.79-1.83,9.58-3,14.3-1.73,6.97-8.39,12-15.58,11.99-8.37,0-16.73-.04-25.1.04-1.52.01-1.81-.5-1.81-1.87.05-8.89.04-17.77.02-26.66,0-3.07-1.8-4.84-4.57-4.6-2.14.19-3.71,1.91-3.73,4.23-.04,4.63-.01,9.25-.01,13.88h0Z"/>
  <path class="uuid-f23ee762-e7ec-4634-b61d-1660674d42c7" d="m40.15,10.1c1.28-.14,3.07.58,4.19-.28,1.1-.84,1.18-2.67,1.68-4.08.42-1.17.81-2.35,1.28-3.51.47-1.18,1.26-2.07,2.63-2.11,1.45-.04,2.31.85,2.78,2.1.82,2.18,1.64,4.37,2.35,6.59.33,1.04.9,1.34,1.94,1.3,2.08-.07,4.15-.03,6.23-.02,1.38,0,2.58.37,3.13,1.81.56,1.48.02,2.62-1.15,3.55-1.66,1.33-3.28,2.72-5,3.97-.89.64-1.01,1.3-.69,2.25.73,2.16,1.38,4.35,2.12,6.5.44,1.29.46,2.44-.7,3.38-1.19.96-2.4.8-3.6.03-1.96-1.26-3.99-2.45-5.85-3.84-1.09-.81-1.87-.68-2.88.04-1.89,1.36-3.87,2.61-5.8,3.92-1.09.74-2.24.86-3.35.14-1.14-.75-1.39-1.92-1.03-3.17.68-2.39,1.37-4.78,2.17-7.13.31-.92.12-1.42-.6-1.97-1.7-1.28-3.33-2.65-5.02-3.93-1.25-.95-1.9-2.15-1.39-3.65.49-1.47,1.79-1.91,3.25-1.91,1.04,0,2.08,0,3.32,0Z"/>
  <path class="uuid-f23ee762-e7ec-4634-b61d-1660674d42c7" d="m6.81,22.71q4.4-.06,5.88-4.31c.43-1.22.86-2.45,1.32-3.66.49-1.27,1.41-2.12,2.81-2.09,1.32.03,2.2.83,2.65,2.06.81,2.24,1.66,4.48,2.39,6.74.3.92.78,1.22,1.7,1.2,2.03-.04,4.05-.01,6.08,0,1.59,0,3.09.29,3.64,2.04.49,1.56-.58,2.51-1.63,3.4-1.59,1.34-3.16,2.69-4.79,3.97-.79.62-.9,1.26-.57,2.16.72,2,1.38,4.02,2.02,6.05.44,1.39.64,2.8-.7,3.84-1.39,1.09-2.71.55-4-.31-1.9-1.26-3.85-2.45-5.72-3.74-.76-.53-1.35-.55-2.1-.03-1.84,1.26-3.71,2.47-5.59,3.68-.65.42-1.26.88-2.09.97-1.96.2-3.12-.8-3.02-2.77.09-1.84.91-3.51,1.43-5.24,1.16-3.87,1.21-3.85-1.99-6.42-1.05-.84-2.09-1.71-3.13-2.57-.95-.79-1.5-1.77-1.16-3.01.37-1.32,1.4-1.91,2.69-1.98,1.3-.06,2.6-.01,3.89-.01Z"/>
  <path class="uuid-f23ee762-e7ec-4634-b61d-1660674d42c7" d="m73.21,22.65h.16q4.48,0,5.91-4.29c.38-1.13.83-2.24,1.18-3.37.45-1.47,1.43-2.35,2.93-2.33,1.47.02,2.29,1.08,2.76,2.39.75,2.1,1.54,4.19,2.19,6.32.32,1.05.89,1.34,1.92,1.31,2.02-.06,4.05,0,6.08,0,1.49,0,2.92.33,3.42,1.88.48,1.51-.37,2.66-1.57,3.59-1.64,1.27-3.2,2.65-4.84,3.92-.71.55-.94,1.05-.61,1.97.82,2.29,1.5,4.64,2.26,6.95.43,1.3.09,2.36-.94,3.19-1.02.82-2.14.74-3.19.09-2.11-1.31-4.24-2.61-6.28-4.03-.99-.69-1.73-.59-2.66.06-1.87,1.31-3.79,2.54-5.71,3.77-1.15.74-2.41,1.15-3.62.21-1.17-.9-1.26-2.14-.81-3.52.72-2.16,1.28-4.38,2.01-6.53.35-1.01.13-1.61-.7-2.25-1.73-1.33-3.37-2.77-5.06-4.14-1.06-.86-1.63-1.91-1.2-3.27.45-1.4,1.62-1.81,2.94-1.86,1.14-.04,2.28,0,3.43,0,0,0,0-.02,0-.03Z"/>
</svg>