<?xml version="1.0" encoding="UTF-8"?>
<svg id="uuid-1f552ca9-3688-4ac9-92a6-4485a7a4142d" data-name="Layer 1" xmlns="http://www.w3.org/2000/svg" viewBox="0 0 100 100">
  <defs>
    <style>
      .uuid-b4b314c5-9d44-4135-baec-fe360b636097 {
        fill: #364856;
        stroke-width: 0px;
      }
    </style>
  </defs>
  <path class="uuid-b4b314c5-9d44-4135-baec-fe360b636097" d="m48.94.03C21.53.5,0,22.94.02,49.49c-.11,28.17,21.8,49.9,48.55,50.48,29.88.64,51.41-23.02,51.42-49.37C99.98,22.08,77.87-.46,48.94.03Zm27.96,61.23c-.1,2.45-1.65,4.1-4.08,4.49-.81.13-1.23.49-1.61,1.11-1.9,3.02-4.55,5.08-7.95,6.18-1.23.4-2.51.56-3.79.67-.41.04-.6.11-.72.58-.8,3.05-3.67,5.17-6.89,5.18-3.18,0-6.14-2.23-6.97-5.26-1.05-3.86,1.1-7.69,4.98-8.86,3.65-1.1,7.66,1.07,8.81,4.81.17.54.36.7.92.68,3.27-.11,6.9-2.08,8.6-4.76-.22-.01-.34-.03-.45-.02-2.28.17-2.5-.66-2.49-2.47.04-5.46.01-10.93.02-16.39,0-1.83.43-2.26,2.24-2.31.29,0,.7.19.71-.41.09-3.54.03-7.07-1.52-10.36-2.78-5.87-7.33-9.45-13.79-10.47-9.2-1.44-18.43,4.7-20.2,14.75-.35,1.97-.2,3.98-.23,5.97,0,.51.24.5.61.52,1.98.06,2.32.41,2.33,2.38,0,5.62,0,11.24,0,16.85,0,1.47-.44,1.92-1.91,1.92-1.6,0-3.19.02-4.79,0-3-.04-5.47-2.22-5.63-5.21-.19-3.61-.23-7.24.03-10.86.2-2.81,2.71-5.03,5.61-5.07.7,0,.87-.19.84-.87-.11-3.23-.03-6.45,1.13-9.52,2.81-7.43,8.05-12.1,15.88-13.61,11.07-2.14,21.89,5.17,24.1,16.13.48,2.37.45,4.76.45,7.15,0,.36-.09.69.51.73,2.82.21,4.92,3.06,5.17,5.67.34,3.54.22,7.12.07,10.67Z"/>
</svg>