<?xml version="1.0" encoding="UTF-8"?>
<svg id="uuid-36acabc8-7652-4461-991b-00951d6e75ec" data-name="Layer 1" xmlns="http://www.w3.org/2000/svg" viewBox="0 0 100 100">
  <defs>
    <style>
      .uuid-96024ff2-ad55-4087-b085-1d985f1db7af {
        fill: #364856;
        stroke-width: 0px;
      }
    </style>
  </defs>
  <path class="uuid-96024ff2-ad55-4087-b085-1d985f1db7af" d="m76.83,50.59c-.25-2.61-2.35-5.46-5.17-5.67-.59-.04-.51-.37-.51-.73,0-2.39.03-4.78-.45-7.15-2.21-10.96-13.03-18.27-24.1-16.13-7.82,1.51-13.07,6.19-15.88,13.61-1.16,3.07-1.25,6.29-1.13,9.52.02.68-.14.86-.84.87-2.9.04-5.41,2.26-5.61,5.07-.26,3.61-.22,7.24-.03,10.86.16,2.98,2.63,5.17,5.63,5.21,1.6.02,3.19,0,4.79,0,1.46,0,1.9-.45,1.91-1.92,0-5.62,0-11.24,0-16.85,0-1.97-.34-2.33-2.33-2.38-.37-.01-.62,0-.61-.52.03-1.99-.12-4,.23-5.97,1.77-10.05,11.01-16.19,20.2-14.75,6.46,1.01,11.02,4.59,13.79,10.47,1.55,3.29,1.61,6.81,1.52,10.36-.01.59-.43.4-.71.4-1.81.05-2.24.48-2.24,2.31,0,5.46.03,10.93-.02,16.39-.01,1.81.21,2.64,2.49,2.47.12,0,.24,0,.45.02-1.7,2.69-5.33,4.65-8.6,4.76-.56.02-.76-.14-.92-.68-1.15-3.74-5.16-5.91-8.81-4.81-3.88,1.17-6.04,5-4.98,8.86.83,3.03,3.8,5.27,6.97,5.26,3.22,0,6.09-2.14,6.89-5.18.12-.47.31-.54.72-.58,1.28-.11,2.55-.27,3.79-.67,3.4-1.1,6.05-3.16,7.95-6.18.39-.62.8-.98,1.61-1.11,2.44-.38,3.98-2.04,4.08-4.49.14-3.56.27-7.13-.07-10.67Z"/>
  <path class="uuid-96024ff2-ad55-4087-b085-1d985f1db7af" d="m48.94.03C21.53.5,0,22.94.02,49.49c-.11,28.17,21.8,49.9,48.55,50.48,29.88.64,51.41-23.02,51.42-49.37,0-28.51-22.12-51.05-51.04-50.56Zm.97,95.79c-25.36-.04-46.01-21.11-45.63-46.01C3.9,24.77,25.29,4.01,50.27,4.18c25.06.18,45.59,20.73,45.56,46.01-.03,25.13-20.94,45.67-45.92,45.63Z"/>
</svg>