<?xml version="1.0" encoding="UTF-8"?>
<svg id="uuid-9d850414-974a-4607-8114-fe089283293d" data-name="Layer 1" xmlns="http://www.w3.org/2000/svg" viewBox="0 0 100 100">
  <defs>
    <style>
      .uuid-836b7cdd-e733-4c58-8885-7b04065abd68 {
        fill: #364856;
        stroke-width: 0px;
      }
    </style>
  </defs>
  <path class="uuid-836b7cdd-e733-4c58-8885-7b04065abd68" d="m82.94,56.43c-1.32-.34-1.58-.82-1.58-2.04.04-15.06.03-30.12.02-45.18,0-6.06-3.15-9.21-9.24-9.21C51.17,0,30.19,0,9.21,0,3.13,0,.04,3.12.03,9.24c0,13.55,0,27.1,0,40.64s0,27.21,0,40.82c0,1.45-.04,2.91.6,4.28,1.67,3.56,4.5,5.02,8.39,5.01,21.85-.05,43.7-.02,65.55-.03,1.86,0,3.7.1,5.57-.07,9.45-.84,17.73-8.34,19.43-17.71,2.17-11.91-4.71-22.66-16.63-25.76ZM16.53,20.85c.63-1.69,1.97-2.29,3.71-2.28,6.45.02,12.9,0,19.34,0,7.2,0,14.41-.01,21.61,0,2.67,0,4.23,1.77,3.8,4.21-.3,1.72-1.71,2.76-3.86,2.76-6.85.01-13.71,0-20.56,0-6.8,0-13.59.02-20.39,0-2.85-.01-4.57-2.24-3.65-4.7Zm28.06,60.55c-4.01,0-8.02,0-12.03,0s-8.02,0-12.03,0c-2.61,0-4.31-1.42-4.27-3.53.04-2.08,1.67-3.44,4.18-3.44,8.08,0,16.16,0,24.24,0,2.5,0,4.15,1.37,4.19,3.44.04,2.11-1.66,3.53-4.27,3.53Zm7.36-19.24c-.73.53-1.59.67-2.47.67-9.75,0-19.5.02-29.25-.01-2.36,0-3.96-1.49-3.98-3.5-.01-2.03,1.55-3.44,3.95-3.46,4.93-.02,9.87,0,14.8,0h0c4.99,0,9.98,0,14.97.01,1.72,0,2.87.86,3.35,2.5.47,1.57-.08,2.85-1.38,3.8Zm-3.82-18.03c-2.5,0-4.99,0-7.49,0-6.85,0-13.71.03-20.56-.01-2.99-.02-4.68-2.61-3.37-5.08.85-1.6,2.36-1.9,4.01-1.89,8.25.01,16.49,0,24.74,0,5.17,0,10.34-.02,15.51,0,2.5.01,3.99,1.25,4.09,3.32.11,2.19-1.29,3.62-3.68,3.65-4.41.04-8.83.01-13.24.01Zm29.84,48.81c-8.49.02-15.09-6.59-15.07-15.11.02-8.39,6.63-14.95,15.06-14.94,8.42,0,15.02,6.59,15.02,15.01,0,8.39-6.61,15.03-15.01,15.04Z"/>
  <path class="uuid-836b7cdd-e733-4c58-8885-7b04065abd68" d="m75.5,77.77c2.3-2.32,4.4-4.48,6.54-6.6,1.64-1.63,3.86-1.78,5.26-.4,1.48,1.45,1.4,3.54-.27,5.23-2.89,2.94-5.8,5.85-8.73,8.75-1.78,1.76-3.68,1.73-5.49-.02-1.41-1.37-2.82-2.76-4.18-4.19-1.56-1.63-1.6-3.69-.16-5.11,1.43-1.41,3.46-1.35,5.11.22.67.64,1.25,1.37,1.92,2.12Z"/>
</svg>