<?xml version="1.0" encoding="UTF-8"?>
<svg id="uuid-790cd7d4-4b20-4ea3-b2e8-55c30994aed8" data-name="Layer 1" xmlns="http://www.w3.org/2000/svg" viewBox="0 0 100 100">
  <defs>
    <style>
      .uuid-aa879404-1bd2-4b47-98b3-96c78a938270 {
        fill: #364856;
        stroke-width: 0px;
      }
    </style>
  </defs>
  <path class="uuid-aa879404-1bd2-4b47-98b3-96c78a938270" d="m99.89,75.56c-.67-8.97-7.47-16.74-16.96-19.12-1.41-.35-1.52-.94-1.52-2.08.02-15.23.02-30.46.01-45.69,0-5.26-3.31-8.62-8.58-8.62-21.39-.03-42.79-.01-64.18,0-1.28,0-2.54.07-3.74.64C1.51,2.31.02,5.03.03,8.78c.04,13.72.01,27.44.01,41.16,0,13.66,0,27.32,0,40.98,0,5.9,3.13,9.05,9,9.06,23.02,0,46.04,0,69.06,0,2.88,0,5.65-.53,8.3-1.65,9.11-3.85,14.25-12.54,13.48-22.77Zm-43.62,6.64c.74,4,2.6,7.48,5.46,10.8h-1.99c-16.74,0-33.48,0-50.23,0q-2.48,0-2.49-2.55c0-26.97,0-53.95,0-80.92q0-2.52,2.5-2.53c20.81,0,41.62,0,62.43,0,2.44,0,2.48.05,2.49,2.39,0,15-.01,30,.02,44.99,0,1.2-.22,1.7-1.55,2.06-11.95,3.13-18.85,13.88-16.65,25.74Zm21.68,10.79c-8.39,0-15.01-6.58-15.08-14.97-.07-8.39,6.54-15.1,14.89-15.12,8.57-.03,15.22,6.49,15.26,14.93.03,8.47-6.62,15.16-15.06,15.16Z"/>
  <path class="uuid-aa879404-1bd2-4b47-98b3-96c78a938270" d="m40.78,25.58c-6.86,0-13.71.02-20.57,0-2.86,0-4.58-2.22-3.67-4.68.63-1.7,1.96-2.3,3.7-2.29,5.87.02,11.74,0,17.61,0,7.79,0,15.57-.01,23.36,0,2.62,0,4.14,1.63,3.84,4.02-.23,1.84-1.64,2.94-3.87,2.95-6.8.01-13.6,0-20.4,0Z"/>
  <path class="uuid-aa879404-1bd2-4b47-98b3-96c78a938270" d="m40.61,44.14c-6.86,0-13.71.03-20.57-.01-2.97-.02-4.65-2.67-3.31-5.12.87-1.59,2.39-1.86,4.03-1.85,10.98.01,21.96,0,32.94,0,2.56,0,5.11-.04,7.67.02,1.71.04,3.09.75,3.57,2.49.42,1.51.04,2.87-1.29,3.86-.86.64-1.85.6-2.84.6-6.74,0-13.48,0-20.22,0Z"/>
  <path class="uuid-aa879404-1bd2-4b47-98b3-96c78a938270" d="m35.02,55.87c4.99,0,9.98,0,14.98,0,1.72,0,2.87.86,3.36,2.49.47,1.57-.08,2.85-1.38,3.8-.73.53-1.59.67-2.47.67-9.75,0-19.51.02-29.26-.01-2.37,0-3.96-1.49-3.98-3.5-.02-2.03,1.55-3.45,3.95-3.46,4.93-.02,9.87,0,14.8,0h0Z"/>
  <path class="uuid-aa879404-1bd2-4b47-98b3-96c78a938270" d="m32.57,74.43c4.01,0,8.03,0,12.04,0,2.61,0,4.31,1.41,4.27,3.53-.03,2.07-1.68,3.44-4.18,3.45-8.08,0-16.17,0-24.25,0-2.5,0-4.15-1.38-4.19-3.44-.04-2.13,1.64-3.53,4.26-3.53,4.01,0,8.03,0,12.04,0Z"/>
  <path class="uuid-aa879404-1bd2-4b47-98b3-96c78a938270" d="m75.49,86c-.94.03-1.76-.36-2.44-1.05-1.48-1.48-2.98-2.93-4.42-4.44-1.54-1.62-1.54-3.71-.08-5.11,1.41-1.35,3.39-1.28,4.99.17q2.18,1.96,4.27-.13c1.48-1.48,2.94-2.97,4.44-4.42,1.56-1.51,3.77-1.58,5.13-.2,1.42,1.44,1.36,3.5-.22,5.11-2.97,3.02-5.99,6-8.97,9-.74.74-1.61,1.11-2.7,1.07Z"/>
</svg>