<?xml version="1.0" encoding="UTF-8"?>
<svg id="uuid-6a3032df-6a58-4c39-bb79-afae46c11d8e" data-name="Layer 1" xmlns="http://www.w3.org/2000/svg" viewBox="0 0 100 100">
  <defs>
    <style>
      .uuid-91ce83f8-4144-4fab-a940-6369405137b5 {
        fill: #364856;
        stroke-width: 0px;
      }
    </style>
  </defs>
  <path class="uuid-91ce83f8-4144-4fab-a940-6369405137b5" d="m100,28.12c.04-6.67-5.1-11.48-11.44-11.44-25.7.14-51.4.15-77.09,0C5.14,16.64-.07,21.6,0,28.08c.21,17.81.09,35.63.04,53.44,0,1.44.38,1.8,1.81,1.8,16.02-.05,32.04-.03,48.07-.03,16.07,0,32.15-.02,48.22.03,1.37,0,1.86-.25,1.85-1.76-.06-17.81-.12-35.63,0-53.44Zm-54.03,50.96c-13.36-.06-26.72-.04-40.08-.02-1.09,0-1.66-.08-1.65-1.47.06-16.19.03-32.39.04-48.58,0-1.85-.17-3.75,1.08-5.37,1.28-1.66,2.87-2.64,5.03-2.64,12.06,0,24.12.02,36.18-.03,1.48,0,1.39.82,1.39,1.8,0,9.08,0,18.17,0,27.25,0,9.03-.04,18.06.04,27.09.01,1.61-.48,1.98-2.04,1.97Zm48.5-.02c-13.63-.02-27.26-.03-40.89.02-1.34,0-1.54-.55-1.54-1.67.03-6.7.01-13.4.01-20.1,0-2.44,0-4.88,0-7.32,0-9.04.03-18.07-.03-27.11-.01-1.49.42-1.92,1.93-1.92,11.55.06,23.1.15,34.64-.02,4.33-.07,7.18,2.85,7.17,6.95-.07,16.67-.03,33.34.01,50.01,0,1.06-.46,1.17-1.32,1.17Z"/>
  <path class="uuid-91ce83f8-4144-4fab-a940-6369405137b5" d="m64.85,50.15c.17-.07.22-.09.27-.1,2.55-.36,4.68-.1,5.81,2.79.59,1.51,1.98,2.64,3.19,3.79.57.55.94.68,1.65.05,4.24-3.78,6.31-8.64,7.28-14.08.23-1.26-.7-.89-1.27-.89-6.87-.02-13.73-.01-20.6-.01-2.87,0-2.83,0-2.85-2.86,0-1,.25-1.32,1.29-1.31,4,.06,8.01-.01,12.01.05,1.04.02,1.3-.3,1.29-1.3-.02-3.02.02-2.99,3.13-2.88.78.03,1.12.21,1.09,1.05-.04.97-.33,2.31.18,2.85.69.73,2.06.24,3.13.25,3.33.04,6.66.05,9.99,0,.97-.02,1.21.28,1.21,1.22,0,2.91.05,2.96-2.92,2.92-1.14-.02-1.43.35-1.63,1.46-1.04,5.93-3.22,11.36-7.61,15.68-.74.72-.74,1,.28,1.43,3.35,1.43,6.85,2.03,10.45,2.17,1,.04,1.46.2,1.44,1.36-.05,2.91,0,2.96-2.89,2.76-4.5-.31-8.83-1.29-12.8-3.51-.73-.41-1.23-.41-1.96,0-4.41,2.44-9.19,3.41-14.19,3.59-1.14.04-1.53-.22-1.49-1.43.08-2.61,0-2.62,2.68-2.81,2.97-.21,5.87-.77,8.64-1.86,1.75-.69,1.76-.72.39-2.14-2.3-2.38-3.93-5.16-5.19-8.2Z"/>
  <path class="uuid-91ce83f8-4144-4fab-a940-6369405137b5" d="m31.22,38.03c-.73-3.05-3.2-4.67-6.22-4.58-2.88.09-5.1,1.99-5.84,5.13-2,8.46-3.98,16.93-5.96,25.4-.62,2.67-.61,2.61,2.16,2.68,1.13.03,1.53-.37,1.74-1.41.39-1.93.96-3.81,1.34-5.74.18-.89.53-1.2,1.43-1.18,3.53.04,7.07.06,10.6,0,1-.02,1.34.33,1.52,1.27.39,2.03.93,4.03,1.37,6.05.12.53.16,1.04.9.99,1.13-.07,2.28.14,3.51-.15-2.19-9.51-4.31-19-6.58-28.44Zm-1.55,16.13c-1.5-.02-3.01,0-4.51,0s-3.01-.01-4.51,0c-.65,0-.9-.1-.71-.88,1.14-4.62,2.2-9.25,3.31-13.87.25-1.05.87-1.81,2.02-1.83,1.14-.02,1.78.66,2.03,1.76,1.06,4.63,2.11,9.26,3.22,13.87.22.9-.16.96-.83.95Z"/>
</svg>