<?xml version="1.0" encoding="UTF-8"?>
<svg id="uuid-e65aa4a1-299b-4cd7-919e-88b2ce9e2337" data-name="Layer 1" xmlns="http://www.w3.org/2000/svg" viewBox="0 0 100 100">
  <defs>
    <style>
      .uuid-42f31b38-829b-4ac2-aa7b-5fd0c81ac603 {
        fill: #364856;
        stroke-width: 0px;
      }
    </style>
  </defs>
  <path class="uuid-42f31b38-829b-4ac2-aa7b-5fd0c81ac603" d="m99.96,70.06c0-13.46.02-26.92,0-40.39-.01-7.65-5.68-12.88-12.1-12.92-25.24-.13-50.49-.13-75.73,0C5.41,16.79.03,22.33.03,28.96.02,46.47.04,63.99,0,81.5c0,1.38.27,1.84,1.78,1.84,16.03-.06,32.06-.04,48.09-.04,16.14,0,32.27-.02,48.41.03,1.4,0,1.75-.38,1.72-1.74-.09-3.84-.03-7.69-.03-11.54Zm-63.9-3.44c-.57-.06-1.14-.01-1.71-.01-2.9,0-2.76-.04-3.5-2.86-1.28-4.89.22-4.12-5.02-4.18-1.61-.02-3.22.02-4.84,0-.79-.01-1.21.21-1.37,1.08-.3,1.63-.81,3.22-1.13,4.84-.16.82-.52,1.16-1.35,1.13-1.3-.04-2.6-.04-3.9,0-.92.03-.98-.31-.79-1.11,1.95-8.11,3.85-16.23,5.77-24.35.24-1.01.5-2.01.76-3.02.77-3.01,3.01-4.74,6.1-4.71,2.92.03,5.16,1.82,5.87,4.84,1.67,7.11,3.3,14.24,4.93,21.36.43,1.87.79,3.75,1.3,5.6.31,1.13.02,1.51-1.12,1.39Zm54.05,8.32c-12.9-.04-25.81-.04-38.71,0-1.24,0-1.44-.45-1.44-1.55.04-7.79.02-15.59.02-23.38s.03-15.59-.03-23.38c0-1.26.36-1.57,1.59-1.56,11.65.04,23.31.02,34.96.03,3.61,0,5.07,1.42,5.07,4.98.01,14.44,0,28.89.03,43.33,0,1.14-.3,1.53-1.49,1.53Z"/>
  <path class="uuid-42f31b38-829b-4ac2-aa7b-5fd0c81ac603" d="m66.09,42.74c-2.81,0-5.62-.04-8.43.02-1.06.02-1.45-.29-1.47-1.4-.06-3.79-.1-3.78,3.73-3.79,2.29,0,4.58-.05,6.87.02,1.11.03,1.43-.42,1.45-1.47.05-2.72.09-2.72,2.87-2.72.26,0,.53.03.78,0,1.2-.18,1.61.25,1.57,1.51-.08,2.93-.41,2.64,2.64,2.66,2.55,0,5.1.09,7.65-.04,1.4-.07,1.77.45,1.6,1.68-.03.2,0,.42,0,.62,0,2.72,0,2.76-2.69,2.88-.85.04-1.19.37-1.3,1.17-.71,5.13-2.56,9.81-5.75,13.92-.56.73-.46,1.13.37,1.54,2.55,1.25,5.22,2.08,8.07,2.15,1.03.03,1.42.36,1.31,1.37-.06.51-.01,1.04-.01,1.56,0,2.57,0,2.56-2.63,2.28-3.87-.41-7.58-1.29-10.81-3.59-.84-.6-1.51-.37-2.26.14-3.52,2.36-7.5,3.18-11.64,3.52-1.33.11-1.84-.27-1.8-1.7.08-3.15,0-3.15,3.09-3.7,2.16-.38,4.23-.98,6.23-1.92,1.07-.5,1.2-.92.45-1.81-1.65-1.96-2.81-4.22-3.76-6.6-.3-.75-.2-1.06.64-1.05,1.25.02,2.5.03,3.75,0,.73-.02.98.45,1.23.99.57,1.23,1.33,2.33,2.12,3.43.73,1.01,1.17.8,1.83-.08,2.31-3.05,3.64-6.48,4.28-10.23.19-1.1-.19-1.39-1.2-1.39-2.91.03-5.83,0-8.74,0Z"/>
  <path class="uuid-42f31b38-829b-4ac2-aa7b-5fd0c81ac603" d="m25.17,39.25c.71,2.93,1.36,5.62,2,8.32.38,1.61.71,3.24,1.12,4.85.23.89.2,1.38-.94,1.33-1.66-.07-3.33,0-4.99-.01-.54,0-1.1,0-.9-.83,1.04-4.33,2.07-8.67,3.12-13,.04-.16.25-.28.58-.65Z"/>
</svg>