<?xml version="1.0" encoding="UTF-8"?>
<svg id="uuid-58b5a3aa-d4ab-4b66-8ecb-76f97fb30d57" data-name="Layer 1" xmlns="http://www.w3.org/2000/svg" viewBox="0 0 100 100">
  <defs>
    <style>
      .uuid-c78c62c0-846f-4fe4-8d08-cea2255f5c5a {
        fill: #364856;
        stroke-width: 0px;
      }
    </style>
  </defs>
  <path class="uuid-c78c62c0-846f-4fe4-8d08-cea2255f5c5a" d="m99.95,35.51c-.01-3.39-1.5-6.14-4.2-8.32-2.42-1.95-5.2-2.19-8.09-2.19-23.05,0-46.1,0-69.15,0-4.33,0-7.8-1.77-10.71-4.88-.93-1-.77-1.68.04-2.6,3.19-3.6,7.27-5.01,11.97-5.01,25.6,0,51.2,0,76.8,0,.47,0,.94.02,1.4-.01,1.07-.08,1.76-.68,1.9-1.73.16-1.15-.48-1.92-1.54-2.21-.69-.19-1.44-.16-2.17-.16-13.06,0-26.12,0-39.18,0-12.28,0-24.56-.01-36.84,0-3.34,0-6.61.3-9.67,1.95C4.23,13.75.26,18.86.15,26.04c-.25,15.7-.12,31.41-.06,47.11.04,10.36,8.28,18.45,18.61,18.45,22.95,0,45.89,0,68.84,0,.94,0,1.87-.02,2.81-.1,5.6-.46,9.59-4.53,9.61-10.13.07-15.29.06-30.58,0-45.87Zm-4.18,44.73c0,3.99-1.25,5.84-4.45,7.01-.72.26-1.43.24-2.15.24-11.86,0-23.72,0-35.59,0-11.65,0-23.31,0-34.96,0-7.69,0-14.15-6.06-14.26-13.77-.17-12.53-.09-25.06-.09-37.59,0-3.64.07-7.28.14-10.92.01-.6-.13-1.38.53-1.68.65-.3.97.45,1.37.8,3.81,3.34,8.23,4.84,13.29,4.83,23-.04,45.99-.01,68.99-.02,3.07,0,5.47,1.07,6.74,4.05.42.98.44,2.03.44,3.06.01,14.66.02,29.32,0,43.99Z"/>
  <path class="uuid-c78c62c0-846f-4fe4-8d08-cea2255f5c5a" d="m83.21,62.42c-2.27-.03-4.14-1.97-4.08-4.24.06-2.21,1.9-3.93,4.19-3.92,2.33,0,4.17,1.82,4.17,4.12,0,2.19-1.98,4.07-4.28,4.04Z"/>
</svg>