<?xml version="1.0" encoding="UTF-8"?>
<svg id="uuid-975a871d-4e1f-43ff-90dc-8ecb20a17097" data-name="Layer 1" xmlns="http://www.w3.org/2000/svg" viewBox="0 0 100 100">
  <defs>
    <style>
      .uuid-5dfe0dd2-9a5a-4f62-9159-bd09b19be41c {
        fill: #364856;
        stroke-width: 0px;
      }
    </style>
  </defs>
  <path class="uuid-5dfe0dd2-9a5a-4f62-9159-bd09b19be41c" d="m100,38.36c0-8.12-5.26-13.37-13.39-13.37-14.27,0-28.54,0-42.8,0-7.55,0-15.1-.02-22.65,0-3.38,0-6.3-1.09-8.83-3.33-.74-.65-.68-1.03,0-1.68,2.67-2.51,5.88-3.38,9.44-3.38,24.16,0,48.32,0,72.48,0,.68,0,1.36.01,2.03-.03,1.68-.11,2.93-1.13,3.41-2.73.88-2.96-.97-5.44-4.14-5.45-12.65-.02-25.31,0-37.96,0-12.13,0-24.27,0-36.4,0C9.17,8.39.02,17.48,0,29.47,0,43.1,0,56.73,0,70.37c0,1.67.16,3.32.51,4.95,2.05,9.5,10.7,16.36,20.69,16.29,21.87-.15,43.74-.04,65.61-.05,7.93,0,13.19-5.3,13.19-13.23,0-13.32,0-26.65,0-39.97Zm-16.62,24.09c-2.36.05-4.1-1.7-4.12-4.14-.01-2.42,1.71-4.21,4.07-4.22,2.24,0,4.04,1.79,4.08,4.07.04,2.37-1.7,4.23-4.03,4.28Z"/>
</svg>