<?xml version="1.0" standalone="no"?>
<!DOCTYPE svg PUBLIC "-//W3C//DTD SVG 20010904//EN"
 "http://www.w3.org/TR/2001/REC-SVG-20010904/DTD/svg10.dtd">
<svg version="1.0" xmlns="http://www.w3.org/2000/svg"
 width="3000.000000pt" height="936.000000pt" viewBox="0 0 3000.000000 936.000000"
 preserveAspectRatio="xMidYMid meet">

<g transform="translate(0.000000,936.000000) scale(0.100000,-0.100000)"
fill="#000000" stroke="none">
<path d="M5475 9337 c-198 -75 -371 -230 -466 -419 -105 -210 -113 -491 -18
-719 94 -230 318 -430 554 -495 90 -25 294 -30 392 -10 262 53 491 242 600
496 50 117 66 220 60 374 -6 158 -21 219 -88 355 -46 94 -62 115 -158 210
-108 108 -171 152 -283 200 -61 25 -69 26 -298 28 -223 2 -238 1 -295 -20z"/>
<path d="M7625 5603 l0 -3648 653 -3 652 -2 0 275 c0 151 2 275 5 275 3 0 53
-42 113 -92 397 -342 761 -514 1215 -573 137 -17 423 -20 565 -4 125 13 345
57 353 70 3 6 333 975 733 2154 l728 2144 -68 97 c-194 279 -473 544 -754 719
-533 330 -1239 425 -1847 249 -346 -100 -680 -292 -947 -544 -46 -44 -86 -80
-90 -80 -3 0 -6 587 -6 1305 l0 1305 -653 0 -652 0 0 -3647z m2830 527 c334
-31 595 -144 822 -355 245 -227 396 -511 458 -855 25 -143 31 -428 11 -575
-49 -376 -182 -659 -426 -906 -210 -213 -452 -344 -732 -396 -129 -23 -408
-23 -538 0 -292 54 -549 193 -757 411 -253 264 -383 577 -412 997 -40 559 141
1042 504 1348 236 199 486 303 792 330 130 12 157 12 278 1z"/>
<path d="M2397 6358 c-3 -2485 -5 -2721 -20 -2808 -21 -121 -52 -224 -83 -277
-30 -51 -98 -115 -152 -142 -86 -44 -228 -46 -382 -6 -83 21 -247 100 -327
156 -93 66 -267 225 -363 333 -47 52 -88 94 -93 93 -12 -3 -967 -899 -967
-908 0 -16 177 -214 281 -314 412 -396 882 -627 1417 -696 141 -19 482 -16
612 5 256 41 473 120 665 244 337 216 571 551 663 947 51 218 85 507 102 865
6 132 10 1185 10 2718 l0 2502 -680 0 -680 0 -3 -2712z"/>
<path d="M5100 4585 l0 -2635 660 0 660 0 0 2635 0 2635 -660 0 -660 0 0
-2635z"/>
</g>
</svg>
